<svg width="45" height="45" viewBox="0 0 45 45" fill="none" xmlns="http://www.w3.org/2000/svg">
<path d="M35.49 0H9.51C4.25777 0 0 4.25776 0 9.50998V35.49C0 40.7422 4.25777 45.0001 9.51 45.0001H35.49C40.7422 45.0001 45 40.7422 45 35.49V9.50998C45 4.25776 40.7422 0 35.49 0Z" fill="url(#paint0_linear_908_197)"/>
<path d="M22.737 13.1261C19.3019 13.0671 16.0546 15.5937 15.2462 18.9287C14.5514 21.5238 15.3582 24.443 17.2786 26.3207C17.2437 26.3113 17.6907 26.8024 17.8682 27.0037C18.7586 28.0038 19.6494 29.0047 20.5398 30.0048C20.3539 29.683 20.4919 30.0319 20.884 30.424C21.4253 31.0163 21.9275 31.6527 22.4935 32.2185C22.9163 32.4713 23.2373 32.0079 23.4768 31.726C23.962 31.1629 24.4941 30.6346 24.9508 30.0506L25.3847 29.5597C26.4712 28.3185 27.5773 27.092 28.6513 25.841C29.0853 25.1175 29.6463 24.4356 29.9312 23.6181C31.2441 20.5027 30.085 16.6344 27.3604 14.6642C26.0382 13.6687 24.392 13.1213 22.737 13.1261ZM22.737 14.0636C25.8152 14.0055 28.7172 16.3155 29.3599 19.3243C29.8752 21.4422 29.243 23.7543 27.8072 25.3777C26.5976 26.7963 25.3296 28.1728 24.1176 29.591L23.7276 30.0433L22.7553 31.1291C22.3293 30.6457 21.559 29.7392 21.133 29.2558C21.1901 29.5835 21.2577 29.4781 21.1294 29.2558C19.8228 27.7644 18.4607 26.3162 17.2036 24.7881C15.3835 22.3425 15.5637 18.6812 17.5972 16.4147C18.8652 14.9314 20.7932 14.0584 22.737 14.0636ZM22.737 17.5499C20.7838 17.4908 19.1072 19.4389 19.4649 21.3622C19.7021 23.2344 21.7454 24.5922 23.5628 24.0649C25.4005 23.6421 26.551 21.4796 25.8462 19.7234C25.3911 18.4453 24.0969 17.532 22.737 17.5499ZM22.737 18.4874C24.2326 18.4321 25.4602 20.0196 25.035 21.4538C24.7147 22.9073 22.8877 23.6998 21.6054 22.9461C20.2768 22.2849 19.944 20.3264 20.9792 19.2637C21.4212 18.7722 22.0759 18.4831 22.737 18.4874ZM22.7041 19.0826C22.6425 19.0835 22.5817 19.0966 22.5252 19.121C22.4687 19.1455 22.4176 19.1808 22.3747 19.225C22.3319 19.2692 22.2982 19.3215 22.2755 19.3787C22.2528 19.436 22.2417 19.4971 22.2426 19.5586V20.5108H21.2887C21.2265 20.5099 21.1649 20.5214 21.1072 20.5445C21.0496 20.5677 20.9971 20.6021 20.9529 20.6457C20.9086 20.6893 20.8735 20.7413 20.8495 20.7986C20.8256 20.8559 20.8132 20.9174 20.8132 20.9795C20.8132 21.0417 20.8256 21.1032 20.8495 21.1605C20.8735 21.2178 20.9086 21.2697 20.9529 21.3134C20.9971 21.357 21.0496 21.3914 21.1072 21.4145C21.1649 21.4377 21.2265 21.4492 21.2887 21.4483H22.2426V22.4023C22.2418 22.4644 22.2532 22.526 22.2764 22.5836C22.2996 22.6413 22.3339 22.6938 22.3776 22.738C22.4212 22.7823 22.4731 22.8174 22.5305 22.8414C22.5878 22.8653 22.6493 22.8776 22.7114 22.8776C22.7735 22.8776 22.835 22.8653 22.8923 22.8414C22.9496 22.8174 23.0016 22.7823 23.0452 22.738C23.0888 22.6938 23.1232 22.6413 23.1464 22.5836C23.1695 22.526 23.181 22.4644 23.1801 22.4023V21.4483H24.1323C24.1944 21.4492 24.2561 21.4377 24.3137 21.4145C24.3713 21.3914 24.4238 21.357 24.468 21.3134C24.5123 21.2697 24.5474 21.2178 24.5714 21.1605C24.5954 21.1032 24.6077 21.0417 24.6077 20.9795C24.6077 20.9174 24.5954 20.8559 24.5714 20.7986C24.5474 20.7413 24.5123 20.6893 24.468 20.6457C24.4238 20.6021 24.3713 20.5677 24.3137 20.5445C24.2561 20.5214 24.1944 20.5099 24.1323 20.5108H23.1801V19.5586C23.1811 19.4958 23.1695 19.4335 23.1459 19.3753C23.1223 19.3171 23.0873 19.2642 23.0429 19.2198C22.9985 19.1754 22.9456 19.1404 22.8874 19.1168C22.8292 19.0932 22.7668 19.0816 22.7041 19.0826Z" fill="white"/>
<defs>
<linearGradient id="paint0_linear_908_197" x1="2.9284" y1="0.596406" x2="42.0211" y2="43.6726" gradientUnits="userSpaceOnUse">
<stop stop-color="#4E2B7D"/>
<stop offset="1" stop-color="#4FD3C4"/>
</linearGradient>
</defs>
</svg>
