<svg width="447" height="269" viewBox="0 0 447 269" fill="none" xmlns="http://www.w3.org/2000/svg">
<path d="M28.0969 56.1938C22.5399 56.1938 17.1076 54.546 12.4871 51.4586C7.8666 48.3713 4.26535 43.9832 2.13876 38.8491C0.012174 33.7151 -0.544239 28.0657 0.539887 22.6155C1.62401 17.1652 4.29999 12.1588 8.22941 8.2294C12.1588 4.29998 17.1652 1.62401 22.6155 0.539887C28.0658 -0.544239 33.7151 0.012174 38.8491 2.13876C43.9832 4.26535 48.3713 7.8666 51.4586 12.4871C54.546 17.1076 56.1938 22.5399 56.1938 28.0969C56.1854 35.5461 53.2225 42.6878 47.9551 47.9551C42.6878 53.2225 35.5461 56.1854 28.0969 56.1938ZM28.0969 1.17072C22.7714 1.17072 17.5655 2.74991 13.1375 5.7086C8.70954 8.66729 5.25833 12.8726 3.22035 17.7927C1.18237 22.7128 0.649148 28.1268 1.6881 33.35C2.72705 38.5731 5.29152 43.3709 9.05722 47.1366C12.8229 50.9023 17.6207 53.4668 22.8439 54.5057C28.0671 55.5447 33.481 55.0115 38.4011 52.9735C43.3213 50.9355 47.5266 47.4843 50.4852 43.0563C53.4439 38.6283 55.0231 33.4224 55.0231 28.0969C55.015 20.9581 52.1756 14.114 47.1277 9.06616C42.0798 4.01827 35.2357 1.17881 28.0969 1.17072Z" fill="#F2F2F2"/>
<path d="M218.922 39.8039C216.143 39.8039 213.427 38.98 211.117 37.4363C208.807 35.8927 207.006 33.6986 205.943 31.1316C204.879 28.5646 204.601 25.7399 205.143 23.0148C205.685 20.2896 207.023 17.7864 208.988 15.8217C210.953 13.857 213.456 12.519 216.181 11.977C218.906 11.4349 221.731 11.7131 224.298 12.7764C226.865 13.8397 229.059 15.6403 230.603 17.9506C232.146 20.2608 232.97 22.977 232.97 25.7555C232.966 29.4801 231.485 33.0509 228.851 35.6846C226.217 38.3183 222.646 39.7997 218.922 39.8039ZM218.922 12.8777C216.375 12.8777 213.885 13.633 211.767 15.048C209.65 16.4631 207.999 18.4743 207.024 20.8274C206.05 23.1805 205.795 25.7698 206.291 28.2678C206.788 30.7659 208.015 33.0604 209.816 34.8614C211.617 36.6624 213.911 37.8889 216.409 38.3858C218.908 38.8827 221.497 38.6277 223.85 37.653C226.203 36.6783 228.214 35.0277 229.629 32.91C231.044 30.7922 231.8 28.3025 231.8 25.7555C231.796 22.3413 230.438 19.068 228.023 16.6538C225.609 14.2396 222.336 12.8816 218.922 12.8777Z" fill="#F2F2F2"/>
<path d="M317.846 108.29C314.72 108.29 311.665 107.363 309.066 105.627C306.467 103.89 304.441 101.422 303.245 98.5338C302.049 95.6459 301.736 92.4681 302.345 89.4024C302.955 86.3366 304.46 83.5205 306.671 81.3102C308.881 79.0999 311.697 77.5947 314.763 76.9848C317.829 76.375 321.006 76.688 323.894 77.8842C326.782 79.0804 329.251 81.1061 330.987 83.7052C332.724 86.3042 333.651 89.3598 333.651 92.4857C333.646 96.6758 331.979 100.693 329.016 103.656C326.054 106.619 322.036 108.285 317.846 108.29ZM317.846 77.8519C314.952 77.8519 312.123 78.7101 309.716 80.3181C307.31 81.9261 305.434 84.2116 304.326 86.8856C303.219 89.5595 302.929 92.5019 303.494 95.3406C304.058 98.1793 305.452 100.787 307.499 102.833C309.545 104.88 312.153 106.274 314.991 106.838C317.83 107.403 320.772 107.113 323.446 106.006C326.12 104.898 328.406 103.022 330.014 100.616C331.622 98.2093 332.48 95.38 332.48 92.4857C332.476 88.6059 330.932 84.8862 328.189 82.1428C325.446 79.3994 321.726 77.8562 317.846 77.8519Z" fill="#F2F2F2"/>
<path d="M446.072 268.091H314.367C314.212 268.091 314.063 268.03 313.953 267.92C313.844 267.81 313.782 267.661 313.782 267.506C313.782 267.351 313.844 267.202 313.953 267.092C314.063 266.982 314.212 266.921 314.367 266.921H446.072C446.227 266.921 446.376 266.982 446.486 267.092C446.595 267.202 446.657 267.351 446.657 267.506C446.657 267.661 446.595 267.81 446.486 267.92C446.376 268.03 446.227 268.091 446.072 268.091Z" fill="#CCCCCC"/>
<path d="M375.162 89.7033C383.102 89.7033 389.539 83.2666 389.539 75.3264C389.539 67.3863 383.102 60.9496 375.162 60.9496C367.222 60.9496 360.785 67.3863 360.785 75.3264C360.785 83.2666 367.222 89.7033 375.162 89.7033Z" fill="#FFB8B8"/>
<path d="M376.654 246.049L369.859 248.356L357.723 223.245L367.752 219.839L376.654 246.049Z" fill="#FFB8B8"/>
<path d="M364.346 248.063L377.451 243.612L380.253 251.864L358.897 259.117C358.529 258.034 358.378 256.888 358.453 255.746C358.528 254.604 358.826 253.488 359.332 252.462C359.838 251.435 360.541 250.519 361.402 249.764C362.262 249.009 363.262 248.432 364.346 248.063Z" fill="#2F2E41"/>
<path d="M392.007 260.233L384.84 260.593L380.039 233.119L390.618 232.587L392.007 260.233Z" fill="#FFB8B8"/>
<path d="M379.617 258.802L393.44 258.108L393.877 266.811L371.352 267.943C371.294 266.8 371.462 265.657 371.847 264.579C372.231 263.501 372.824 262.51 373.592 261.661C374.359 260.812 375.286 260.123 376.32 259.632C377.354 259.142 378.474 258.86 379.617 258.802Z" fill="#2F2E41"/>
<path d="M349.355 168.95C349.998 168.378 350.507 167.672 350.847 166.881C351.188 166.091 351.35 165.236 351.324 164.375C351.298 163.515 351.084 162.671 350.696 161.903C350.309 161.135 349.758 160.461 349.081 159.929L355.915 140.159L345.383 142.85L340.509 161.211C339.69 162.406 339.338 163.861 339.52 165.298C339.702 166.735 340.404 168.056 341.495 169.01C342.585 169.964 343.987 170.485 345.436 170.474C346.885 170.463 348.279 169.921 349.355 168.95Z" fill="#FFB8B8"/>
<path d="M391.337 251.95C391.244 251.95 391.152 251.945 391.06 251.935L381.331 250.905C380.733 250.844 380.174 250.58 379.748 250.157C379.322 249.733 379.054 249.176 378.99 248.579L371.472 181.55L366.031 199.892L376.174 235.94C376.278 236.307 376.3 236.692 376.24 237.069C376.18 237.445 376.039 237.804 375.826 238.121C375.614 238.438 375.335 238.705 375.009 238.903C374.683 239.101 374.319 239.227 373.94 239.27L364.078 240.404C363.45 240.473 362.818 240.316 362.296 239.96C361.774 239.604 361.396 239.073 361.231 238.463L350.456 197.897C350.367 197.563 350.345 197.215 350.39 196.873L355.234 160.465L391.358 163.362L393.97 249.235C393.981 249.587 393.921 249.939 393.793 250.267C393.666 250.596 393.473 250.896 393.228 251.149C392.982 251.403 392.688 251.604 392.364 251.741C392.039 251.879 391.69 251.95 391.337 251.95V251.95Z" fill="#2F2E41"/>
<path d="M378.85 169.588C366.747 169.588 353.045 164.911 352.215 164.624L351.975 164.541L365.628 94.4836L365.879 94.4939C371.29 94.7134 386.056 94.8261 386.205 94.8272L386.47 94.8292L392.161 156.653L393.178 165.696L393.053 165.797C389.572 168.612 384.378 169.588 378.85 169.588Z" fill="#4E2B7D"/>
<path d="M356.985 163.533L348.445 160.093L352.798 107.444C352.903 106.146 353.298 104.889 353.954 103.764C354.61 102.639 355.51 101.675 356.588 100.945L361.082 97.8866C360.954 97.4543 360.932 96.9979 361.015 96.555C361.099 96.1121 361.286 95.6953 361.562 95.3388C361.837 94.9823 362.194 94.6963 362.602 94.5043C363.009 94.3123 363.457 94.2198 363.907 94.2342L365.194 94.2757C365.439 94.1107 365.728 94.0236 366.023 94.0257C366.318 94.0278 366.605 94.119 366.848 94.2874C367.09 94.4559 367.275 94.6936 367.38 94.9694C367.485 95.2452 367.504 95.5463 367.434 95.8331L367.152 101.411L356.985 163.533Z" fill="#2F2E41"/>
<path d="M352.676 154.095L341.526 153.625L345.138 130.391L348.131 108.529C348.19 107.744 348.425 106.982 348.82 106.301C349.215 105.62 349.758 105.037 350.41 104.595C351.061 104.153 351.805 103.865 352.584 103.751C353.362 103.637 354.157 103.7 354.908 103.936C356.078 104.303 357.081 105.07 357.742 106.103C358.402 107.135 358.679 108.367 358.522 109.583L355.49 133.271L352.676 154.095Z" fill="#2F2E41"/>
<path d="M370.332 164.338L370.256 164.104C370.204 163.943 365.179 147.824 373.587 128.589L377.804 107.618L381.407 94.451C381.474 94.2157 381.596 93.9993 381.762 93.8192C381.927 93.639 382.133 93.5 382.362 93.4132C382.631 93.3201 382.921 93.3082 383.197 93.379C383.473 93.4499 383.721 93.6003 383.912 93.8115C386.424 93.0743 389.124 93.3443 391.439 94.5642L396.5 97.2298C397.625 97.8225 398.522 98.7718 399.049 99.9289C399.577 101.086 399.706 102.385 399.416 103.624L392.499 133.139L395.862 160.707L370.332 164.338Z" fill="#2F2E41"/>
<path d="M377.695 152.975C378.551 153.068 379.416 152.972 380.231 152.694C381.045 152.416 381.789 151.963 382.409 151.367C383.03 150.771 383.512 150.046 383.822 149.243C384.132 148.44 384.262 147.579 384.203 146.721L399.865 135.119L394.39 132.523L377.502 141.223C376.067 141.417 374.752 142.131 373.808 143.23C372.864 144.329 372.355 145.736 372.379 147.184C372.403 148.633 372.957 150.023 373.937 151.09C374.917 152.157 376.254 152.828 377.695 152.975V152.975Z" fill="#FFB8B8"/>
<path d="M387.514 147.781L382.225 137.907L395.271 129.321L388.904 106.486C388.649 105.572 388.585 104.615 388.717 103.675C388.848 102.735 389.172 101.833 389.668 101.023C390.164 100.214 390.822 99.5159 391.6 98.9722C392.378 98.4285 393.259 98.051 394.19 97.8634C395.834 97.5357 397.541 97.8158 398.995 98.6516C400.448 99.4874 401.549 100.822 402.092 102.408L410.682 127.657C410.859 128.178 410.869 128.74 410.71 129.267C410.552 129.793 410.232 130.256 409.797 130.592L387.514 147.781Z" fill="#2F2E41"/>
<path d="M376.18 78.3759C374.456 78.6001 373.156 76.8368 372.553 75.2068C371.95 73.5768 371.491 71.6791 369.992 70.7986C367.945 69.5957 365.326 71.0425 362.985 70.6456C360.341 70.1974 358.622 67.3956 358.488 64.7176C358.353 62.0395 359.419 59.4638 360.464 56.9947L360.83 60.0632C360.781 59.0232 361 57.9881 361.465 57.0568C361.931 56.1255 362.627 55.3293 363.489 54.7443L363.018 59.2469C363.118 58.6257 363.34 58.0304 363.671 57.4951C364.002 56.9599 364.435 56.4952 364.946 56.1278C365.457 55.7604 366.035 55.4974 366.648 55.3541C367.26 55.2108 367.895 55.1899 368.516 55.2925L368.442 57.9754C371.495 57.6123 374.576 57.2487 377.638 57.5253C380.701 57.8019 383.785 58.7709 386.106 60.7878C389.578 63.8048 390.846 68.7726 390.42 73.3526C389.994 77.9326 388.104 82.2352 386.133 86.3915C385.638 87.4372 384.952 88.6172 383.802 88.7504C382.769 88.8701 381.824 88.0067 381.503 87.0176C381.256 86.0028 381.265 84.9424 381.531 83.9322C381.822 82.3885 382.188 80.8106 381.915 79.2637C381.641 77.7168 380.529 76.1881 378.969 75.9985C377.41 75.809 375.814 77.5914 376.564 78.9718L376.18 78.3759Z" fill="#2F2E41"/>
<path d="M188.079 236.235L182.483 233.878L178.644 205.824H127.519L123.358 233.764L118.351 236.267C118.112 236.387 117.92 236.584 117.806 236.827C117.693 237.069 117.664 237.343 117.726 237.604C117.787 237.864 117.935 238.097 118.145 238.263C118.355 238.429 118.615 238.52 118.883 238.52H187.618C187.893 238.52 188.159 238.425 188.371 238.251C188.584 238.077 188.729 237.835 188.784 237.566C188.838 237.297 188.798 237.017 188.669 236.775C188.541 236.532 188.332 236.341 188.079 236.235Z" fill="#E6E6E6"/>
<path d="M278.931 209.556H27.7931C26.4754 209.553 25.2128 209.028 24.2821 208.095C23.3514 207.162 22.8287 205.898 22.8287 204.581V169.167H283.896V204.581C283.896 205.898 283.373 207.162 282.442 208.095C281.512 209.028 280.249 209.553 278.931 209.556Z" fill="#CCCCCC"/>
<path d="M284.158 185.904H22.5995V34.376C22.6013 32.7858 23.2339 31.2613 24.3583 30.1369C25.4828 29.0124 27.0074 28.3799 28.5976 28.3782H278.16C279.75 28.38 281.275 29.0125 282.399 30.1369C283.524 31.2613 284.156 32.7858 284.158 34.376V185.904Z" fill="#3F3D56"/>
<path d="M268.536 174.906H38.2214C36.9954 174.905 35.8201 174.417 34.9532 173.551C34.0863 172.684 33.5987 171.508 33.5973 170.282V44.0001C33.5987 42.7741 34.0863 41.5987 34.9531 40.7318C35.82 39.8649 36.9954 39.3773 38.2214 39.3759H268.536C269.762 39.3773 270.938 39.8649 271.805 40.7318C272.672 41.5987 273.159 42.7741 273.161 44.0001V170.282C273.159 171.508 272.672 172.684 271.805 173.551C270.938 174.417 269.762 174.905 268.536 174.906Z" fill="white"/>
<path d="M266.368 238.812H43.3493C43.1941 238.812 43.0452 238.751 42.9354 238.641C42.8256 238.531 42.764 238.382 42.764 238.227C42.764 238.072 42.8256 237.923 42.9354 237.813C43.0452 237.703 43.1941 237.641 43.3493 237.641H266.368C266.524 237.641 266.673 237.703 266.782 237.813C266.892 237.923 266.954 238.072 266.954 238.227C266.954 238.382 266.892 238.531 266.782 238.641C266.673 238.751 266.524 238.812 266.368 238.812Z" fill="#CCCCCC"/>
<path d="M246.899 159.216H59.8585C59.7032 159.216 59.5543 159.154 59.4446 159.044C59.3348 158.935 59.2731 158.786 59.2731 158.63V68.9818C59.2731 68.8265 59.3348 68.6777 59.4446 68.5679C59.5543 68.4581 59.7032 68.3964 59.8585 68.3964C60.0137 68.3964 60.1626 68.4581 60.2724 68.5679C60.3822 68.6777 60.4438 68.8265 60.4438 68.9818V158.045H246.899C247.054 158.045 247.203 158.107 247.313 158.217C247.423 158.326 247.485 158.475 247.485 158.63C247.485 158.786 247.423 158.935 247.313 159.044C247.203 159.154 247.054 159.216 246.899 159.216Z" fill="#3F3D56"/>
<path d="M99.821 152.777H82.8089C82.3482 152.776 81.9066 152.593 81.5808 152.268C81.2551 151.942 81.0718 151.5 81.0713 151.039V127.588C81.0718 127.128 81.2551 126.686 81.5808 126.36C81.9066 126.034 82.3482 125.851 82.8089 125.851H99.821C100.282 125.851 100.723 126.034 101.049 126.36C101.375 126.686 101.558 127.128 101.559 127.588V151.039C101.558 151.5 101.375 151.942 101.049 152.268C100.723 152.593 100.282 152.776 99.821 152.777Z" fill="#4E2B7D"/>
<path d="M130.845 152.777H113.832C113.372 152.776 112.93 152.593 112.604 152.267C112.279 151.942 112.095 151.5 112.095 151.039V105.345C112.095 104.884 112.279 104.442 112.604 104.117C112.93 103.791 113.372 103.608 113.832 103.607H130.845C131.305 103.608 131.747 103.791 132.073 104.117C132.398 104.442 132.582 104.884 132.582 105.345V151.039C132.582 151.5 132.398 151.942 132.073 152.267C131.747 152.593 131.305 152.776 130.845 152.777Z" fill="#4E2B7D"/>
<path d="M161.868 152.777H144.856C144.396 152.776 143.954 152.593 143.628 152.268C143.302 151.942 143.119 151.5 143.119 151.039V127.588C143.119 127.128 143.302 126.686 143.628 126.36C143.954 126.034 144.396 125.851 144.856 125.851H161.868C162.329 125.851 162.771 126.034 163.096 126.36C163.422 126.686 163.605 127.128 163.606 127.588V151.039C163.605 151.5 163.422 151.942 163.096 152.268C162.771 152.593 162.329 152.776 161.868 152.777Z" fill="#4E2B7D"/>
<path d="M192.892 152.777H175.88C175.43 152.787 174.994 152.617 174.668 152.306C174.343 151.996 174.153 151.568 174.142 151.118V96.4858C174.153 96.0356 174.343 95.6083 174.668 95.2974C174.994 94.9864 175.43 94.8173 175.88 94.827H192.892C193.342 94.8173 193.778 94.9864 194.104 95.2974C194.429 95.6083 194.618 96.0356 194.63 96.4858V151.118C194.618 151.568 194.429 151.996 194.104 152.306C193.778 152.617 193.342 152.787 192.892 152.777Z" fill="#4E2B7D"/>
<path d="M223.916 152.777H206.904C206.443 152.776 206.001 152.593 205.676 152.268C205.35 151.942 205.167 151.5 205.166 151.039V80.7601C205.167 80.2994 205.35 79.8578 205.676 79.532C206.001 79.2063 206.443 79.0231 206.904 79.0226H223.916C224.376 79.0231 224.818 79.2063 225.144 79.532C225.47 79.8578 225.653 80.2994 225.653 80.7601V151.039C225.653 151.5 225.47 151.942 225.144 152.268C224.818 152.593 224.376 152.776 223.916 152.777Z" fill="#4E2B7D"/>
<path d="M91.315 118.827C93.2547 118.827 94.8271 117.254 94.8271 115.314C94.8271 113.375 93.2547 111.802 91.315 111.802C89.3753 111.802 87.8029 113.375 87.8029 115.314C87.8029 117.254 89.3753 118.827 91.315 118.827Z" fill="#3F3D56"/>
<path d="M122.339 95.9979C124.278 95.9979 125.851 94.4254 125.851 92.4857C125.851 90.5461 124.278 88.9736 122.339 88.9736C120.399 88.9736 118.826 90.5461 118.826 92.4857C118.826 94.4254 120.399 95.9979 122.339 95.9979Z" fill="#3F3D56"/>
<path d="M153.362 118.827C155.302 118.827 156.874 117.254 156.874 115.314C156.874 113.375 155.302 111.802 153.362 111.802C151.423 111.802 149.85 113.375 149.85 115.314C149.85 117.254 151.423 118.827 153.362 118.827Z" fill="#3F3D56"/>
<path d="M184.386 84.8761C186.326 84.8761 187.898 83.3037 187.898 81.364C187.898 79.4243 186.326 77.8519 184.386 77.8519C182.446 77.8519 180.874 79.4243 180.874 81.364C180.874 83.3037 182.446 84.8761 184.386 84.8761Z" fill="#3F3D56"/>
<path d="M215.41 71.9984C217.349 71.9984 218.922 70.426 218.922 68.4863C218.922 66.5466 217.349 64.9742 215.41 64.9742C213.47 64.9742 211.897 66.5466 211.897 68.4863C211.897 70.426 213.47 71.9984 215.41 71.9984Z" fill="#3F3D56"/>
<path d="M153.436 116.101L122.339 92.8088L91.6662 115.783L90.9637 114.846L122.339 91.346L153.289 114.528L184.044 80.8711L184.167 80.8208L215.191 68.3212L215.629 69.407L184.728 81.8568L153.436 116.101Z" fill="#3F3D56"/>
</svg>
