<svg width="121" height="145" viewBox="0 0 121 145" fill="none" xmlns="http://www.w3.org/2000/svg">
<path d="M48.0824 20.1632C49.2651 21.3459 50.6445 22.5274 51.8259 23.7101C52.0226 24.1047 52.2206 24.3014 52.614 24.3014C53.4021 24.8928 53.9934 25.2862 54.7815 25.8776C55.3729 26.2722 56.3577 25.8776 56.5556 25.0895C60.6938 9.91586 39.4111 2.42722 28.1776 0.0620225C26.9961 -0.331396 26.2081 1.24475 26.9962 2.03282C32.1205 6.76259 31.9226 15.6305 34.4848 21.9362C37.2436 28.4399 43.7473 31.7888 50.6443 31.3954C51.2357 31.3954 51.4324 30.8041 51.2357 30.4107C51.4324 30.016 51.4324 29.6226 51.039 29.2279C50.2509 28.2431 49.6596 27.2571 48.8715 26.2724V26.0757C48.2801 24.3016 47.6888 22.7255 46.9007 20.9513C46.7027 20.1632 47.4908 19.5718 48.0822 20.1632L48.0824 20.1632Z" fill="#99D71E"/>
<path d="M119.814 69.4308C118.238 60.9575 114.69 53.2712 108.384 47.1622C107.596 46.3741 106.61 45.586 105.822 44.798C100.896 40.6598 95.18 38.4923 88.6776 37.5064C82.3719 36.7183 76.2629 38.0977 70.3505 40.2652C67.197 41.4479 60.6946 43.6154 60.4979 43.6154C60.3012 43.6154 53.7976 41.2512 50.6454 40.2652C44.733 38.0977 38.6239 36.7183 32.1215 37.7031C25.8158 38.6878 19.9035 40.8565 14.977 44.9947C13.9922 45.7828 13.2029 46.5708 12.4149 47.3589C6.10917 53.4679 2.56232 60.9566 0.984779 69.6275C0.590125 71.795 0.393417 73.9626 0.196707 76.1312C0.196707 76.3279 0.196706 76.5258 0 76.9192V83.2249C0.196706 84.6044 0.196704 86.1805 0.394652 87.5601C0.986015 94.2604 2.75884 100.961 4.92743 107.267C8.08092 115.938 12.4161 124.018 17.9335 131.308C18.1302 131.505 18.3281 131.703 18.5249 131.9C20.889 135.053 23.4513 138.009 26.6048 140.571C27.3929 141.162 27.9842 141.556 28.7723 142.147C32.7138 144.906 37.2456 145.301 41.9754 143.921C42.1721 143.921 42.1721 143.921 42.37 143.724C44.5375 143.133 46.5082 142.542 48.4791 141.557C49.8585 140.966 51.2379 140.374 52.8142 139.981C55.1784 139.389 60.3028 138.798 60.4995 138.798H60.8942C63.4563 138.798 65.8206 139.193 68.1858 139.981C69.5652 140.375 70.9446 140.966 72.521 141.557C74.4917 142.345 76.4624 143.133 78.63 143.724C78.8267 143.724 78.8267 143.724 79.0246 143.921C83.7544 145.301 88.0892 144.906 92.2277 142.147C93.0158 141.752 93.6071 141.162 94.3952 140.571C97.5487 138.207 99.913 135.053 102.475 131.9L103.067 131.308C108.584 124.017 112.919 116.135 116.073 107.267C118.24 100.763 120.014 94.2607 120.605 87.5601C120.802 86.1806 120.802 84.6045 121 83.2249V76.9192C121 76.7225 121 76.5246 120.803 76.1312C120.406 73.7657 120.209 71.5984 119.815 69.4308L119.814 69.4308ZM20.6901 58.1973C18.916 59.7735 17.5366 61.7442 16.355 63.9118L14.3842 68.4445C13.7928 70.8087 13.3994 72.9773 13.3994 75.3416C13.3994 76.5243 12.6113 77.3124 11.4286 77.3124C10.4438 77.3124 9.65449 76.721 9.45779 75.9329V75.5383C9.26108 68.2466 12.4133 60.5613 17.7344 55.2402C18.5225 54.4522 19.7052 54.4522 20.4932 55.2402C21.478 56.2275 21.478 57.409 20.6899 58.197L20.6901 58.1973Z" fill="#FF0800"/>
</svg>
