<svg width="195" height="196" viewBox="0 0 195 196" fill="none" xmlns="http://www.w3.org/2000/svg">
<path d="M125.341 84.6402C114.7 103.071 99.7234 115.333 86.4481 107.668C73.1667 100 70.8499 83.7445 81.4909 65.3138C92.1319 46.883 109.933 36.8007 123.215 44.4687C136.49 52.1332 135.981 66.2095 125.341 84.6402Z" fill="#583C1C"/>
<path d="M86.8678 68.7291C97.0375 51.1147 113.747 41.1382 126.798 46.9795C125.737 46.0808 124.547 45.2378 123.209 44.4653C109.927 36.7973 92.1259 46.8796 81.4849 65.3103C70.8439 83.741 73.1669 100 86.4422 107.665C87.0252 108.001 87.6147 108.284 88.1989 108.548C78.2179 100.167 77.2828 85.3309 86.8678 68.7291Z" fill="#6B4D2F"/>
<path d="M125.042 50.9413C125.042 50.9413 111.796 60.9859 106.463 78.8557C100.845 97.6577 88.3047 104.141 88.3047 104.141C88.3047 104.141 101.794 100.309 111.111 80.4428C116.636 68.6488 112.387 66.057 125.042 50.9413Z" fill="#7F5E40"/>
<path d="M132.596 158.534C113.766 168.456 94.5626 170.847 87.4105 157.282C80.2585 143.718 86.9593 128.724 105.789 118.802C124.619 108.88 145.057 109.837 152.203 123.398C159.357 136.972 151.426 148.612 132.596 158.534Z" fill="#583C1C"/>
<path d="M92.9281 160.468C85.7761 146.903 92.4769 131.91 111.307 121.988C124.094 115.246 137.621 113.531 147.227 117.374C137.855 109.852 121.282 110.635 105.789 118.802C86.9593 128.724 80.2585 143.718 87.4105 157.282C89.5627 161.364 92.8051 163.997 96.8028 165.422C95.2853 164.096 93.9741 162.455 92.9281 160.468Z" fill="#6B4D2F"/>
<path d="M150.892 127.24C150.892 127.24 133.735 125.591 121.672 140.149C108.979 155.472 93.8494 150.566 93.8494 150.566C93.8494 150.566 108.944 159.289 125.783 146.352C135.782 138.671 132.442 131.743 150.892 127.24Z" fill="#7F5E40"/>
<path d="M144.448 84.7393C145.22 68.1801 151.198 54.34 163.128 54.8942C175.058 55.4483 182.478 65.8697 181.707 82.429C180.935 98.9882 172.222 112.337 160.291 111.783C148.364 111.223 143.677 101.299 144.448 84.7393Z" fill="#583C1C"/>
<path d="M149.398 86.0746C150.169 69.5154 156.147 55.6753 168.077 56.2295C168.628 56.253 169.161 56.3073 169.694 56.3773C167.704 55.5149 165.512 55.0023 163.128 54.8942C151.198 54.34 145.22 68.1801 144.448 84.7393C143.709 100.646 148.006 110.426 158.92 111.663C151.648 108.299 148.778 99.3092 149.398 86.0746Z" fill="#6B4D2F"/>
<path d="M163.918 106.946C163.918 106.946 170.092 96.7627 166.522 84.0386C162.76 70.6553 169.941 62.8947 169.941 62.8947C169.941 62.8947 160.851 69.2835 162.117 84.4251C162.873 93.421 167.398 93.7751 163.918 106.946Z" fill="#7F5E40"/>
<path d="M24.0199 126.928C15.5827 107.637 14.6033 88.5124 28.5032 82.4378C42.4031 76.3632 56.712 84.0516 65.1492 103.342C73.5864 122.632 71.1701 142.734 57.2702 148.809C43.3703 154.883 32.4535 146.224 24.0199 126.928Z" fill="#583C1C"/>
<path d="M32.3302 125.743C23.8931 106.453 22.9137 87.3284 36.8136 81.2538C37.5244 80.944 38.2358 80.6755 38.9454 80.4387C35.5048 80.2608 31.9883 80.9228 28.4997 82.4439C14.5998 88.5185 15.5792 107.643 24.0164 126.934C32.1159 145.448 42.4928 154.164 55.6051 149.468C46.3236 148.634 38.6311 140.159 32.3302 125.743Z" fill="#6B4D2F"/>
<path d="M58.8439 143.858C58.8439 143.858 60.5764 126.683 47.617 112.646C33.9813 97.8673 38.6169 83.1624 38.6169 83.1624C38.6169 83.1624 30.5352 97.3588 41.962 116.035C48.7454 127.119 55.046 124.611 58.8439 143.858Z" fill="#7F5E40"/>
</svg>
