<svg width="175" height="197" viewBox="0 0 175 197" fill="none" xmlns="http://www.w3.org/2000/svg">
<path d="M86.2927 138.027L67.4867 132.391C67.5885 135.242 67.8139 138.085 68.1775 140.856L84.0238 145.605L86.2927 138.027Z" fill="#F5DC3D"/>
<path d="M84.0236 146.834C83.9073 146.834 83.7909 146.819 83.6746 146.783L67.8283 142.034C67.3701 141.896 67.0283 141.496 66.9629 141.023C66.5993 138.267 66.3666 135.373 66.2648 132.435C66.2502 132.042 66.4248 131.664 66.7375 131.424C67.0502 131.184 67.4574 131.104 67.8356 131.22L86.6489 136.856C86.9617 136.951 87.2235 137.162 87.3762 137.445C87.5289 137.729 87.5653 138.064 87.4707 138.376L85.2017 145.954C85.0345 146.492 84.5545 146.834 84.0236 146.834ZM69.29 139.918L83.2019 144.085L84.7727 138.849L68.7882 134.056C68.8901 136.049 69.0573 138.013 69.29 139.918Z" fill="#B7996F"/>
<path d="M90.8381 122.872L68.374 116.137C67.9813 118.748 67.7122 121.432 67.5668 124.159L88.5619 130.449L90.8381 122.872Z" fill="#F5DC3D"/>
<path d="M88.5691 131.671C88.4527 131.671 88.3364 131.657 88.22 131.62L67.2177 125.33C66.6723 125.17 66.3159 124.653 66.345 124.094C66.4977 121.33 66.7741 118.596 67.1668 115.963C67.2177 115.614 67.4213 115.301 67.7195 115.112C68.0177 114.923 68.3885 114.872 68.7303 114.974L91.1944 121.708C91.5071 121.803 91.7689 122.014 91.9216 122.297C92.0743 122.581 92.1107 122.915 92.0162 123.228L89.7472 130.806C89.5799 131.329 89.0927 131.671 88.5691 131.671ZM68.8467 123.264L87.7473 128.93L89.3181 123.694L69.3921 117.723C69.1521 119.534 68.9703 121.388 68.8467 123.264Z" fill="#B7996F"/>
<path d="M88.569 130.45L67.5739 124.159C67.4212 126.886 67.3994 129.65 67.4939 132.391L86.3 138.027L88.569 130.45Z" fill="#F5DC3D"/>
<path d="M86.2999 139.249C86.1835 139.249 86.0599 139.234 85.9508 139.198L67.1374 133.562C66.6357 133.409 66.2866 132.958 66.2648 132.435C66.1702 129.664 66.1993 126.857 66.3448 124.086C66.3666 123.715 66.5557 123.366 66.8611 123.148C67.1665 122.93 67.5592 122.872 67.9156 122.974L88.9179 129.264C89.5651 129.46 89.936 130.144 89.7397 130.791L87.4707 138.369C87.3762 138.682 87.1653 138.943 86.8817 139.096C86.6999 139.205 86.4962 139.249 86.2999 139.249ZM68.6864 131.475L85.4781 136.507L87.0489 131.271L68.7228 125.781C68.6501 127.671 68.6355 129.577 68.6864 131.475Z" fill="#B7996F"/>
<path d="M84.0238 145.605L68.1775 140.856C68.5775 143.881 69.1375 146.819 69.8574 149.619L81.7548 153.183L84.0238 145.605Z" fill="#F5DC3D"/>
<path d="M81.7548 154.412C81.6385 154.412 81.5221 154.397 81.4058 154.361L69.5083 150.797C69.0938 150.674 68.7811 150.346 68.672 149.932C67.9448 147.096 67.3703 144.1 66.963 141.023C66.9121 140.609 67.0648 140.202 67.3848 139.933C67.7048 139.663 68.1339 139.569 68.5266 139.693L84.3729 144.441C84.6856 144.536 84.9474 144.747 85.1001 145.03C85.2528 145.314 85.2892 145.649 85.1946 145.961L82.9257 153.539C82.7657 154.07 82.2784 154.412 81.7548 154.412ZM70.8755 148.652L80.9331 151.663L82.5039 146.427L69.6683 142.58C69.9883 144.66 70.3955 146.696 70.8755 148.652Z" fill="#B7996F"/>
<path d="M102.197 84.9686L81.4858 78.7653C80.3586 81.2888 79.2896 83.7323 78.2933 86.0667L99.921 92.5463L102.197 84.9686Z" fill="#F5DC3D"/>
<path d="M99.9283 93.7752C99.812 93.7752 99.6956 93.7606 99.5793 93.7243L77.9515 87.2447C77.617 87.1429 77.3407 86.9101 77.1952 86.5902C77.0498 86.2775 77.0425 85.9138 77.1807 85.5866C78.1988 83.194 79.2751 80.736 80.3805 78.2634C80.635 77.7034 81.2604 77.4126 81.8495 77.5871L102.561 83.7903C102.874 83.8849 103.135 84.0958 103.288 84.3794C103.441 84.663 103.477 84.9975 103.383 85.3102L101.114 92.888C100.939 93.4334 100.452 93.7752 99.9283 93.7752ZM79.9587 85.2884L99.0993 91.0263L100.67 85.7902L82.1622 80.2415C81.4131 81.9432 80.6786 83.6303 79.9587 85.2884Z" fill="#B7996F"/>
<path d="M124.138 83.2813L132.864 85.8993C133.199 83.2886 133.519 80.627 133.817 77.9217L125.265 75.3546C124.901 78.0526 124.523 80.6997 124.138 83.2813Z" fill="#F5DC3D"/>
<path d="M132.864 87.1213C132.748 87.1213 132.632 87.1068 132.515 87.0704L123.788 84.4524C123.207 84.2778 122.843 83.7033 122.93 83.0997C123.323 80.4745 123.701 77.8128 124.058 75.1948C124.108 74.8384 124.305 74.5257 124.61 74.3294C124.908 74.133 125.287 74.0821 125.628 74.1839L134.181 76.751C134.748 76.9183 135.111 77.471 135.046 78.06C134.748 80.7217 134.428 83.4124 134.086 86.0523C134.042 86.4086 133.839 86.7286 133.541 86.9249C133.33 87.0558 133.097 87.1213 132.864 87.1213ZM125.505 82.4161L131.832 84.3142C132.057 82.4889 132.282 80.6417 132.486 78.8091L126.283 76.9474C126.036 78.7655 125.774 80.5981 125.505 82.4161Z" fill="#B7996F"/>
<path d="M99.9282 92.5465L78.3005 86.0669C77.1951 88.6558 76.1697 91.1139 75.2461 93.4119L97.6593 100.131L99.9282 92.5465Z" fill="#F5DC3D"/>
<path d="M97.6522 101.353C97.5358 101.353 97.4122 101.339 97.3031 101.302L74.89 94.5827C74.5627 94.4809 74.2864 94.2481 74.1409 93.9427C73.9882 93.63 73.9809 93.2737 74.1118 92.9537C75.0354 90.6557 76.0681 88.1758 77.1735 85.5869C77.4207 85.0124 78.0534 84.7142 78.6497 84.896L100.277 91.3756C100.925 91.5719 101.296 92.2555 101.099 92.9028L98.8303 100.48C98.7358 100.793 98.5249 101.055 98.2413 101.208C98.0522 101.302 97.8558 101.353 97.6522 101.353ZM76.8826 92.6264L96.8377 98.6042L98.4085 93.3682L78.9988 87.5504C78.2498 89.3103 77.5443 91.0047 76.8826 92.6264Z" fill="#B7996F"/>
<path d="M79.4786 160.768L85.8709 162.68C88.5035 161.058 91.1143 159.051 93.645 156.753L81.7476 153.19L79.4786 160.768Z" fill="#F5DC3D"/>
<path d="M85.871 163.909C85.7546 163.909 85.631 163.895 85.5219 163.858L79.1296 161.946C78.4823 161.749 78.1115 161.073 78.3078 160.418L80.5768 152.841C80.6713 152.528 80.8822 152.266 81.1658 152.113C81.4494 151.961 81.7839 151.924 82.0967 152.019L93.9941 155.582C94.4159 155.706 94.7359 156.055 94.8377 156.484C94.9322 156.913 94.794 157.364 94.4668 157.662C91.8197 160.069 89.1435 162.106 86.5109 163.727C86.3218 163.844 86.0964 163.909 85.871 163.909ZM81.0058 159.946L85.6964 161.349C87.5072 160.2 89.3471 158.84 91.1797 157.284L82.5766 154.71L81.0058 159.946Z" fill="#B7996F"/>
<path d="M95.3832 107.709L72.3882 100.815C71.6101 102.96 70.9701 104.844 70.5047 106.407C70.3156 107.047 70.1338 107.694 69.9593 108.349L93.1142 115.287L95.3832 107.709Z" fill="#F5DC3D"/>
<path d="M93.1141 116.516C92.9978 116.516 92.8814 116.501 92.7651 116.465L69.6174 109.527C68.9847 109.338 68.6139 108.683 68.7884 108.044C68.9629 107.374 69.152 106.713 69.3411 106.058C69.8138 104.495 70.4537 102.589 71.2464 100.4C71.4646 99.7895 72.1264 99.4623 72.7445 99.6441L95.7394 106.531C96.0522 106.625 96.314 106.836 96.4667 107.12C96.6194 107.404 96.6558 107.738 96.5612 108.051L94.2922 115.629C94.125 116.174 93.6377 116.516 93.1141 116.516ZM71.4573 107.52L92.2924 113.76L93.8632 108.523L73.1518 102.32C72.5482 104.007 72.0536 105.498 71.6828 106.756C71.6028 107.011 71.53 107.265 71.4573 107.52Z" fill="#B7996F"/>
<path d="M93.1141 115.287L69.9592 108.349C69.3047 110.829 68.7811 113.439 68.3739 116.138L90.8379 122.872L93.1141 115.287Z" fill="#F5DC3D"/>
<path d="M90.838 124.093C90.7217 124.093 90.5981 124.079 90.489 124.042L68.0249 117.308C67.4431 117.134 67.0795 116.559 67.1668 115.956C67.5813 113.178 68.1194 110.516 68.774 108.036C68.8612 107.716 69.0721 107.44 69.3557 107.28C69.6466 107.12 69.9884 107.084 70.3084 107.178L93.4561 114.116C94.1033 114.312 94.4742 114.996 94.2778 115.643L92.0089 123.221C91.9143 123.533 91.7034 123.795 91.4198 123.948C91.238 124.042 91.0417 124.093 90.838 124.093ZM69.7484 115.272L90.0163 121.344L91.5871 116.108L70.832 109.891C70.4175 111.607 70.0539 113.41 69.7484 115.272Z" fill="#B7996F"/>
<path d="M69.8575 149.626C70.7084 152.942 71.7847 156.055 73.0937 158.855L79.486 160.767L81.755 153.19L69.8575 149.626Z" fill="#F5DC3D"/>
<path d="M79.4786 161.989C79.3623 161.989 79.2387 161.975 79.1296 161.938L72.7372 160.026C72.4027 159.924 72.1264 159.684 71.9809 159.371C70.6719 156.564 69.5593 153.386 68.672 149.932C68.5629 149.503 68.6938 149.052 69.0066 148.746C69.3265 148.441 69.7847 148.332 70.2065 148.456L82.1039 152.019C82.7512 152.215 83.122 152.899 82.9257 153.546L80.6567 161.124C80.5622 161.437 80.3513 161.698 80.0677 161.851C79.8786 161.946 79.6822 161.989 79.4786 161.989ZM73.9735 157.837L78.6641 159.24L80.2349 154.004L71.6318 151.423C72.3009 153.735 73.0936 155.881 73.9735 157.837Z" fill="#B7996F"/>
<path d="M120.065 106.844L129.199 109.578C129.657 107.135 130.115 104.509 130.566 101.731L121.549 99.0333C121.054 101.804 120.56 104.422 120.065 106.844Z" fill="#F5DC3D"/>
<path d="M129.199 110.807C129.083 110.807 128.959 110.792 128.85 110.756L119.716 108.022C119.112 107.84 118.742 107.229 118.865 106.604C119.352 104.189 119.854 101.571 120.349 98.815C120.407 98.4732 120.618 98.1751 120.916 97.986C121.214 97.7969 121.578 97.7606 121.905 97.8551L130.923 100.553C131.512 100.728 131.875 101.317 131.781 101.92C131.33 104.684 130.864 107.331 130.406 109.796C130.341 110.138 130.137 110.436 129.839 110.618C129.643 110.749 129.424 110.807 129.199 110.807ZM121.483 105.993L128.239 108.022C128.552 106.291 128.872 104.473 129.184 102.597L122.509 100.597C122.167 102.473 121.825 104.277 121.483 105.993Z" fill="#B7996F"/>
<path d="M97.6519 100.132L95.383 107.709L118.378 114.603C118.923 112.32 119.491 109.716 120.065 106.851L97.6519 100.132Z" fill="#F5DC3D"/>
<path d="M118.378 115.825C118.262 115.825 118.138 115.81 118.029 115.774L95.034 108.88C94.7213 108.785 94.4595 108.574 94.3068 108.291C94.1541 108.007 94.1177 107.673 94.2122 107.36L96.4812 99.7822C96.6775 99.135 97.3611 98.7714 98.0084 98.9605L120.422 105.68C121.025 105.862 121.396 106.473 121.272 107.098C120.691 109.963 120.123 112.581 119.571 114.894C119.491 115.221 119.28 115.505 118.989 115.672C118.8 115.767 118.589 115.825 118.378 115.825ZM96.903 106.887L117.476 113.054C117.854 111.403 118.247 109.614 118.64 107.694L98.4738 101.651L96.903 106.887Z" fill="#B7996F"/>
<path d="M93.1141 115.287L116.262 122.224C116.48 121.584 116.684 120.937 116.873 120.304C117.338 118.748 117.847 116.821 118.371 114.596L95.3758 107.702L93.1141 115.287Z" fill="#F5DC3D"/>
<path d="M116.262 123.454C116.146 123.454 116.029 123.439 115.913 123.403L92.7652 116.465C92.4525 116.37 92.1907 116.159 92.038 115.876C91.8852 115.592 91.8489 115.258 91.9434 114.945L94.2124 107.367C94.4087 106.72 95.0923 106.356 95.7395 106.545L118.734 113.44C119.353 113.629 119.723 114.261 119.571 114.894C119.033 117.17 118.516 119.112 118.051 120.668C117.855 121.315 117.644 121.97 117.425 122.632C117.251 123.126 116.778 123.454 116.262 123.454ZM94.6341 114.465L115.469 120.712C115.549 120.457 115.629 120.203 115.702 119.956C116.08 118.705 116.48 117.192 116.909 115.439L96.1977 109.236L94.6341 114.465Z" fill="#B7996F"/>
<path d="M121.556 99.0333L130.574 101.731C130.988 99.2078 131.395 96.568 131.788 93.8336L122.909 91.1719C122.458 93.9063 122.007 96.5316 121.556 99.0333Z" fill="#F5DC3D"/>
<path d="M130.566 102.953C130.45 102.953 130.334 102.938 130.217 102.902L121.2 100.204C120.603 100.022 120.232 99.4258 120.349 98.8149C120.8 96.2987 121.258 93.6589 121.694 90.9754C121.752 90.6263 121.956 90.3209 122.254 90.1391C122.552 89.95 122.916 89.9064 123.258 90.0009L132.137 92.6626C132.719 92.8371 133.082 93.4116 132.995 94.008C132.602 96.6987 132.195 99.3603 131.781 101.927C131.723 102.277 131.519 102.582 131.221 102.771C131.024 102.895 130.799 102.953 130.566 102.953ZM122.952 98.175L129.584 100.16C129.868 98.3786 130.152 96.546 130.421 94.7061L123.883 92.7498C123.578 94.5897 123.265 96.4078 122.952 98.175Z" fill="#B7996F"/>
<path d="M122.909 91.1791L131.788 93.8407C132.159 91.2736 132.522 88.6192 132.872 85.9067L124.145 83.2886C123.738 85.9866 123.323 88.6265 122.909 91.1791Z" fill="#F5DC3D"/>
<path d="M131.781 95.0626C131.664 95.0626 131.548 95.0481 131.432 95.0117L122.552 92.3501C121.963 92.1755 121.6 91.5865 121.694 90.9829C122.123 88.3721 122.538 85.725 122.923 83.107C122.974 82.7579 123.178 82.4452 123.476 82.2562C123.774 82.0671 124.145 82.0162 124.487 82.118L133.213 84.736C133.788 84.9105 134.152 85.4705 134.079 86.0668C133.737 88.7357 133.373 91.4119 132.995 94.0227C132.944 94.3718 132.741 94.6845 132.443 94.8808C132.246 94.9972 132.014 95.0626 131.781 95.0626ZM124.283 90.3138L130.77 92.2555C131.024 90.4447 131.279 88.6121 131.512 86.7722L125.134 84.8596C124.865 86.6777 124.581 88.503 124.283 90.3138Z" fill="#B7996F"/>
<path d="M90.8379 122.872L113.302 129.606C114.451 127.133 115.447 124.661 116.262 122.232L93.1142 115.294L90.8379 122.872Z" fill="#F5DC3D"/>
<path d="M113.302 130.827C113.186 130.827 113.069 130.813 112.953 130.777L90.4889 124.042C89.8416 123.846 89.4707 123.163 89.6671 122.515L91.936 114.938C92.0306 114.625 92.2415 114.363 92.5251 114.21C92.8087 114.058 93.1432 114.021 93.4559 114.116L116.604 121.054C116.924 121.148 117.185 121.366 117.338 121.664C117.491 121.955 117.52 122.304 117.411 122.617C116.596 125.046 115.578 127.57 114.4 130.115C114.204 130.558 113.767 130.827 113.302 130.827ZM92.3651 122.05L112.633 128.122C113.404 126.399 114.095 124.697 114.691 123.032L93.9359 116.814L92.3651 122.05Z" fill="#B7996F"/>
<path d="M84.0237 145.605L99.87 150.354C101.703 148.237 103.455 145.99 105.106 143.663L86.3 138.027L84.0237 145.605Z" fill="#F5DC3D"/>
<path d="M99.8701 151.583C99.7537 151.583 99.6373 151.568 99.521 151.532L83.6747 146.783C83.362 146.689 83.1002 146.478 82.9475 146.194C82.7948 145.91 82.7584 145.576 82.8529 145.263L85.1219 137.685C85.3182 137.038 86.0018 136.675 86.6491 136.864L105.455 142.5C105.833 142.616 106.131 142.9 106.262 143.271C106.393 143.641 106.328 144.056 106.102 144.376C104.408 146.769 102.619 149.052 100.794 151.161C100.561 151.43 100.219 151.583 99.8701 151.583ZM85.5509 144.79L99.4628 148.957C100.706 147.496 101.928 145.947 103.106 144.347L87.1218 139.554L85.5509 144.79Z" fill="#B7996F"/>
<path d="M86.2925 138.027L105.099 143.663C106.691 141.423 108.182 139.103 109.557 136.74L88.5615 130.449L86.2925 138.027Z" fill="#F5DC3D"/>
<path d="M105.106 144.892C104.99 144.892 104.873 144.878 104.757 144.841L85.9509 139.205C85.3037 139.009 84.9328 138.325 85.1292 137.678L87.3981 130.1C87.4927 129.788 87.7036 129.526 87.9872 129.373C88.2708 129.22 88.6053 129.184 88.918 129.279L109.92 135.569C110.277 135.678 110.568 135.94 110.706 136.289C110.844 136.638 110.815 137.031 110.626 137.358C109.229 139.751 107.71 142.107 106.11 144.376C105.87 144.703 105.492 144.892 105.106 144.892ZM87.8199 137.205L104.612 142.238C105.695 140.682 106.735 139.082 107.717 137.46L89.3907 131.969L87.8199 137.205Z" fill="#B7996F"/>
<path d="M81.7549 153.19L93.6523 156.753C95.7904 154.811 97.8775 152.666 99.8774 150.361L84.0311 145.612L81.7549 153.19Z" fill="#F5DC3D"/>
<path d="M93.6449 157.975C93.5286 157.975 93.4122 157.96 93.2959 157.924L81.3984 154.361C81.0857 154.266 80.8239 154.055 80.6712 153.772C80.5185 153.488 80.4821 153.153 80.5767 152.841L82.8456 145.263C83.042 144.616 83.7256 144.252 84.3728 144.441L100.219 149.19C100.619 149.306 100.924 149.619 101.041 150.019C101.157 150.419 101.063 150.848 100.794 151.161C98.7573 153.51 96.6338 155.699 94.4667 157.662C94.2413 157.866 93.9504 157.975 93.6449 157.975ZM83.2747 152.368L93.3322 155.379C94.8085 154.012 96.2629 152.535 97.681 150.979L84.8455 147.132L83.2747 152.368Z" fill="#B7996F"/>
<path d="M88.5691 130.449L109.564 136.74C110.939 134.384 112.189 131.991 113.302 129.599L90.838 122.864L88.5691 130.449Z" fill="#F5DC3D"/>
<path d="M109.564 137.969C109.448 137.969 109.331 137.955 109.215 137.918L88.2126 131.628C87.8999 131.533 87.6381 131.322 87.4854 131.039C87.3327 130.755 87.2963 130.42 87.3909 130.108L89.6598 122.53C89.8562 121.883 90.5398 121.519 91.187 121.708L113.651 128.442C113.993 128.544 114.269 128.791 114.415 129.111C114.56 129.439 114.56 129.81 114.407 130.13C113.287 132.551 112.008 134.987 110.619 137.373C110.4 137.744 109.993 137.969 109.564 137.969ZM90.0889 129.628L108.99 135.293C109.913 133.664 110.786 132.013 111.586 130.362L91.6597 124.392L90.0889 129.628Z" fill="#B7996F"/>
<path d="M97.6521 100.131L75.2389 93.4116C74.1481 96.1315 73.1881 98.6113 72.3882 100.815L95.3831 107.709L97.6521 100.131Z" fill="#F5DC3D"/>
<path d="M95.3829 108.931C95.2666 108.931 95.1502 108.916 95.0339 108.88L72.039 101.993C71.719 101.898 71.4499 101.673 71.2972 101.368C71.1444 101.069 71.1226 100.72 71.239 100.4C72.0535 98.1677 73.0207 95.6588 74.1043 92.9535C74.3443 92.3645 74.9842 92.059 75.5878 92.2408L98.001 98.9604C98.3137 99.055 98.5755 99.2659 98.7282 99.5495C98.8809 99.8331 98.9173 100.168 98.8227 100.48L96.5538 108.058C96.3938 108.589 95.9065 108.931 95.3829 108.931ZM73.9879 100.022L94.5612 106.189L96.132 100.953L75.966 94.9098C75.2387 96.7206 74.577 98.4295 73.9879 100.022Z" fill="#B7996F"/>
<path d="M113.556 47.0728L127.992 51.3998C128.239 48.6945 128.457 46.0038 128.654 43.3349L115.825 39.4879L113.556 47.0728Z" fill="#F5DC3D"/>
<path d="M127.992 52.6216C127.875 52.6216 127.759 52.6071 127.643 52.5707L113.207 48.2437C112.56 48.0473 112.189 47.3638 112.386 46.7165L114.654 39.1388C114.749 38.8261 114.96 38.5643 115.244 38.4116C115.527 38.2589 115.862 38.2225 116.174 38.3171L129.003 42.1641C129.548 42.3314 129.912 42.855 129.875 43.4222C129.686 46.0329 129.461 48.7528 129.214 51.509C129.177 51.8726 128.988 52.2071 128.683 52.4107C128.472 52.5489 128.232 52.6216 127.992 52.6216ZM115.076 46.2511L126.901 49.7927C127.068 47.9019 127.221 46.0402 127.352 44.2221L116.64 41.0151L115.076 46.2511Z" fill="#B7996F"/>
<path d="M111.28 54.6505L127.192 59.4211C127.476 56.7449 127.745 54.0687 127.985 51.3998L113.549 47.0728L111.28 54.6505Z" fill="#F5DC3D"/>
<path d="M127.199 60.6429C127.083 60.6429 126.967 60.6284 126.85 60.592L110.939 55.8214C110.626 55.7269 110.364 55.516 110.211 55.2323C110.059 54.9487 110.022 54.6142 110.117 54.3015L112.386 46.7238C112.582 46.0765 113.266 45.7129 113.913 45.902L128.348 50.229C128.908 50.3963 129.265 50.9344 129.214 51.5089C128.974 54.1633 128.705 56.8686 128.421 59.5521C128.385 59.9157 128.181 60.2429 127.883 60.4393C127.672 60.5775 127.439 60.6429 127.199 60.6429ZM112.808 53.8288L126.138 57.8213C126.327 55.9668 126.508 54.1124 126.683 52.2798L114.378 48.5928L112.808 53.8288Z" fill="#B7996F"/>
<path d="M115.825 39.4879L128.654 43.3349C128.85 40.6005 129.025 37.888 129.156 35.2263L118.094 31.9102L115.825 39.4879Z" fill="#F5DC3D"/>
<path d="M128.654 44.5565C128.537 44.5565 128.421 44.5419 128.305 44.5056L115.476 40.6585C115.164 40.564 114.902 40.3531 114.749 40.0695C114.597 39.7859 114.56 39.4514 114.655 39.1386L116.924 31.5609C117.018 31.2482 117.229 30.9864 117.513 30.8337C117.796 30.681 118.131 30.6446 118.444 30.7392L129.505 34.0553C130.043 34.2153 130.406 34.7244 130.377 35.2916C130.246 37.8951 130.072 40.6367 129.868 43.4293C129.839 43.8002 129.65 44.1347 129.345 44.3456C129.141 44.4838 128.894 44.5565 128.654 44.5565ZM117.353 38.666L127.541 41.7203C127.672 39.815 127.788 37.9387 127.883 36.1207L118.916 33.4372L117.353 38.666Z" fill="#B7996F"/>
<path d="M120.371 24.3325L129.468 27.0596C129.534 24.2161 129.555 21.4599 129.519 18.8128L122.647 16.7548L120.371 24.3325Z" fill="#F5DC3D"/>
<path d="M129.461 28.2812C129.345 28.2812 129.228 28.2666 129.112 28.2303L120.022 25.5032C119.709 25.4086 119.447 25.1977 119.294 24.9141C119.142 24.6305 119.105 24.296 119.2 23.9833L121.469 16.4055C121.665 15.7583 122.349 15.3947 122.996 15.5838L129.868 17.6418C130.377 17.7945 130.734 18.2672 130.741 18.7981C130.777 21.4161 130.755 24.2014 130.69 27.0885C130.683 27.4739 130.494 27.823 130.188 28.0485C129.97 28.2012 129.723 28.2812 129.461 28.2812ZM121.891 23.5106L128.268 25.4232C128.305 23.4597 128.312 21.5543 128.297 19.729L123.461 18.2818L121.891 23.5106Z" fill="#B7996F"/>
<path d="M109.011 62.2284L126.283 67.4062C126.603 64.7591 126.908 62.0902 127.192 59.4213L111.28 54.6506L109.011 62.2284Z" fill="#F5DC3D"/>
<path d="M126.29 68.6278C126.174 68.6278 126.057 68.6132 125.941 68.5769L108.669 63.399C108.357 63.3045 108.095 63.0936 107.942 62.81C107.789 62.5263 107.753 62.1918 107.848 61.8791L110.117 54.3014C110.313 53.6542 110.997 53.2906 111.644 53.4796L127.556 58.2502C128.123 58.4175 128.486 58.9702 128.421 59.552C128.145 62.1627 127.832 64.8607 127.505 67.5588C127.461 67.9151 127.265 68.2351 126.959 68.4387C126.756 68.5623 126.523 68.6278 126.29 68.6278ZM110.538 61.4064L125.25 65.8134C125.468 63.959 125.679 62.1118 125.876 60.301L112.109 56.1776L110.538 61.4064Z" fill="#B7996F"/>
<path d="M118.102 31.91L129.163 35.2262C129.301 32.4409 129.41 29.7138 129.468 27.0594L120.371 24.3323L118.102 31.91Z" fill="#F5DC3D"/>
<path d="M129.155 36.4479C129.039 36.4479 128.923 36.4334 128.806 36.397L117.745 33.0809C117.098 32.8845 116.727 32.2009 116.923 31.5537L119.192 23.976C119.287 23.6633 119.498 23.4015 119.781 23.2488C120.065 23.096 120.4 23.0597 120.712 23.1542L129.81 25.8813C130.341 26.0413 130.697 26.5286 130.683 27.0813C130.624 29.692 130.515 32.4482 130.37 35.2844C130.348 35.6625 130.159 36.0043 129.854 36.2225C129.65 36.3752 129.403 36.4479 129.155 36.4479ZM119.621 31.0883L128.006 33.6045C128.094 31.6701 128.166 29.7793 128.217 27.9612L121.192 25.8522L119.621 31.0883Z" fill="#B7996F"/>
<path d="M104.466 77.3909L84.7946 71.4931C83.6456 73.9729 82.5402 76.4019 81.4857 78.7654L102.197 84.9686L104.466 77.3909Z" fill="#F5DC3D"/>
<path d="M102.197 86.1905C102.081 86.1905 101.957 86.176 101.848 86.1396L81.1366 79.9363C80.8021 79.8345 80.5258 79.5946 80.373 79.2746C80.2276 78.9546 80.2276 78.5837 80.3658 78.2637C81.413 75.922 82.5256 73.4713 83.6819 70.9769C83.9365 70.4242 84.5546 70.1406 85.1437 70.3224L104.815 76.2202C105.462 76.4166 105.833 77.1002 105.637 77.7474L103.368 85.3178C103.273 85.6305 103.063 85.8923 102.779 86.0451C102.597 86.1469 102.401 86.1905 102.197 86.1905ZM83.1729 77.9946L101.375 83.4488L102.946 78.2128L85.4636 72.9768C84.6782 74.6785 83.9074 76.3584 83.1729 77.9946Z" fill="#B7996F"/>
<path d="M97.6521 100.131L120.065 106.851C120.553 104.422 121.054 101.804 121.556 99.0332L99.9283 92.5536L97.6521 100.131Z" fill="#F5DC3D"/>
<path d="M120.065 108.073C119.949 108.073 119.825 108.058 119.716 108.022L97.3031 101.302C96.6558 101.106 96.285 100.422 96.4813 99.7749L98.7503 92.1972C98.8448 91.8845 99.0557 91.6227 99.3393 91.4699C99.6229 91.3172 99.9574 91.2809 100.27 91.3754L121.898 97.855C122.494 98.0368 122.865 98.6331 122.749 99.244C122.247 102.015 121.745 104.655 121.251 107.084C121.185 107.418 120.974 107.716 120.683 107.891C120.502 108.007 120.283 108.073 120.065 108.073ZM99.1793 99.3095L119.127 105.287C119.469 103.571 119.811 101.767 120.153 99.8912L100.743 94.0734L99.1793 99.3095Z" fill="#B7996F"/>
<path d="M104.466 77.3909L124.138 83.2887C124.523 80.6998 124.901 78.0527 125.265 75.3619L106.742 69.8132L104.466 77.3909Z" fill="#F5DC3D"/>
<path d="M124.138 84.5105C124.021 84.5105 123.898 84.4959 123.789 84.4596L104.117 78.5617C103.804 78.4672 103.543 78.2563 103.39 77.9727C103.237 77.6891 103.201 77.3545 103.295 77.0418L105.564 69.4641C105.761 68.8169 106.444 68.4533 107.091 68.6424L125.614 74.1911C126.188 74.3656 126.552 74.9329 126.472 75.5292C126.116 78.1618 125.737 80.8307 125.345 83.4705C125.294 83.8196 125.09 84.1323 124.792 84.3214C124.596 84.445 124.37 84.5105 124.138 84.5105ZM105.993 76.5691L123.134 81.7034C123.403 79.8853 123.658 78.0454 123.912 76.2273L107.564 71.3258L105.993 76.5691Z" fill="#B7996F"/>
<path d="M106.742 69.8131L125.265 75.3619C125.621 72.7439 125.963 70.0895 126.283 67.406L109.011 62.2281L106.742 69.8131Z" fill="#F5DC3D"/>
<path d="M125.265 76.5837C125.148 76.5837 125.032 76.5692 124.916 76.5328L106.393 70.9841C105.746 70.7877 105.375 70.1114 105.571 69.4569L107.84 61.8792C107.935 61.5665 108.146 61.3047 108.429 61.1519C108.713 60.9992 109.047 60.9629 109.36 61.0574L126.632 66.2353C127.206 66.4098 127.57 66.9625 127.497 67.5588C127.177 70.1914 126.835 72.8749 126.472 75.5292C126.421 75.8856 126.225 76.1983 125.919 76.3946C125.73 76.5183 125.497 76.5837 125.265 76.5837ZM108.262 68.9914L124.239 73.7766C124.479 71.944 124.719 70.1041 124.945 68.286L109.833 63.7554L108.262 68.9914Z" fill="#B7996F"/>
<path d="M102.197 84.9685L122.909 91.1718C123.323 88.6192 123.738 85.9867 124.145 83.2814L104.473 77.3835L102.197 84.9685Z" fill="#F5DC3D"/>
<path d="M122.909 92.4008C122.792 92.4008 122.669 92.3863 122.559 92.3499L101.848 86.1467C101.201 85.9503 100.83 85.2667 101.026 84.6195L103.295 77.0418C103.39 76.7291 103.601 76.4673 103.884 76.3145C104.168 76.1618 104.502 76.1255 104.815 76.22L124.487 82.1178C125.068 82.2924 125.432 82.8669 125.345 83.4705C124.952 86.0958 124.538 88.7574 124.108 91.3754C124.05 91.7245 123.847 92.0299 123.548 92.219C123.359 92.3354 123.134 92.4008 122.909 92.4008ZM103.724 84.1468L121.927 89.601C122.218 87.7902 122.501 85.9649 122.778 84.1541L105.295 78.918L103.724 84.1468Z" fill="#B7996F"/>
<path d="M99.9283 92.5463L121.556 99.0259C122.007 96.5243 122.458 93.899 122.909 91.1719L102.197 84.9686L99.9283 92.5463Z" fill="#F5DC3D"/>
<path d="M121.556 100.255C121.44 100.255 121.316 100.24 121.207 100.204L99.5792 93.7245C99.2665 93.6299 99.0047 93.419 98.852 93.1354C98.6993 92.8518 98.6629 92.5173 98.7575 92.2045L101.026 84.6268C101.223 83.9796 101.906 83.616 102.554 83.8051L123.265 90.0083C123.854 90.1829 124.218 90.7719 124.123 91.3755C123.68 94.0735 123.229 96.7206 122.771 99.2514C122.705 99.5932 122.501 99.8913 122.203 100.08C122 100.197 121.781 100.255 121.556 100.255ZM101.448 91.7246L120.589 97.4624C120.902 95.6952 121.214 93.8772 121.52 92.0373L103.012 86.4885L101.448 91.7246Z" fill="#B7996F"/>
<path d="M115.826 39.4878L102.997 35.6408C101.696 37.9752 100.394 40.346 99.1139 42.7386L113.549 47.0655L115.826 39.4878Z" fill="#F5DC3D"/>
<path d="M113.557 48.2946C113.44 48.2946 113.317 48.2801 113.207 48.2437L98.772 43.9167C98.4229 43.8076 98.132 43.5531 97.9939 43.2113C97.8557 42.8695 97.8702 42.4841 98.0448 42.1641C99.3465 39.7279 100.663 37.3353 101.935 35.0445C102.219 34.5428 102.808 34.3028 103.354 34.47L116.182 38.3171C116.829 38.5134 117.2 39.197 117.004 39.8443L114.735 47.422C114.64 47.7347 114.429 47.9965 114.146 48.1492C113.957 48.2437 113.753 48.2946 113.557 48.2946ZM100.91 42.0041L112.735 45.5457L114.306 40.3097L103.594 37.1026C102.706 38.6952 101.805 40.3388 100.91 42.0041Z" fill="#B7996F"/>
<path d="M111.28 54.6506L95.3685 49.8799C94.1395 52.2725 92.925 54.6651 91.7396 57.0504L109.011 62.2283L111.28 54.6506Z" fill="#F5DC3D"/>
<path d="M109.011 63.4574C108.895 63.4574 108.779 63.4428 108.662 63.4065L91.3832 58.2286C91.0342 58.1268 90.7578 57.8723 90.6124 57.545C90.4669 57.2105 90.4815 56.8396 90.6415 56.5124C91.8414 54.1052 93.0631 51.6836 94.2776 49.3273C94.5467 48.8037 95.1503 48.5492 95.7175 48.7165L111.629 53.4871C111.942 53.5816 112.204 53.7925 112.356 54.0761C112.509 54.3598 112.546 54.6943 112.451 55.007L110.182 62.5847C110.022 63.1083 109.535 63.4574 109.011 63.4574ZM93.4776 56.3014L108.189 60.7084L109.76 55.4724L95.9938 51.349C95.1503 52.978 94.314 54.6361 93.4776 56.3014Z" fill="#B7996F"/>
<path d="M129.512 18.8128C129.476 15.8821 129.374 13.0895 129.192 10.457L124.909 9.1698L122.64 16.7475L129.512 18.8128Z" fill="#F5DC3D"/>
<path d="M129.512 20.0344C129.396 20.0344 129.279 20.0199 129.163 19.9835L122.291 17.9255C121.643 17.7291 121.273 17.0455 121.469 16.3983L123.738 8.82058C123.832 8.50788 124.043 8.24607 124.327 8.09336C124.61 7.94064 124.945 7.90427 125.258 7.99881L129.541 9.28602C130.028 9.43147 130.377 9.8678 130.414 10.3769C130.588 12.9731 130.697 15.802 130.734 18.7981C130.741 19.1908 130.559 19.5545 130.246 19.7944C130.036 19.9472 129.781 20.0344 129.512 20.0344ZM124.167 15.9329L128.261 17.1619C128.218 15.1402 128.138 13.2058 128.028 11.3877L125.73 10.6968L124.167 15.9329Z" fill="#B7996F"/>
<path d="M106.742 69.8132L88.22 64.2644C87.0419 66.7079 85.9001 69.1296 84.802 71.5003L104.473 77.3981L106.742 69.8132Z" fill="#F5DC3D"/>
<path d="M104.466 78.6127C104.35 78.6127 104.233 78.5982 104.117 78.5618L84.4456 72.664C84.1038 72.5622 83.8275 72.3149 83.682 71.995C83.5366 71.6677 83.5366 71.2968 83.6893 70.9768C84.8092 68.5697 85.9582 66.1262 87.1145 63.7264C87.3763 63.181 87.9945 62.9119 88.569 63.0864L107.091 68.6352C107.404 68.7297 107.666 68.9406 107.819 69.2242C107.971 69.5078 108.008 69.8424 107.913 70.1551L105.644 77.7328C105.484 78.2709 104.997 78.6127 104.466 78.6127ZM86.5037 70.7296L103.644 75.8638L105.215 70.6278L88.8672 65.7263C88.0745 67.3916 87.2818 69.0642 86.5037 70.7296Z" fill="#B7996F"/>
<path d="M109.011 62.2282L91.7398 57.0504C90.5399 59.4647 89.3618 61.8719 88.2201 64.2572L106.743 69.8059L109.011 62.2282Z" fill="#F5DC3D"/>
<path d="M106.742 71.035C106.626 71.035 106.502 71.0204 106.393 70.9841L87.8709 65.4353C87.5291 65.3335 87.2455 65.0863 87.1 64.759C86.9546 64.4318 86.9619 64.0609 87.1146 63.7336C88.2709 61.3338 89.4563 58.9048 90.6416 56.5123C90.9034 55.9814 91.5143 55.7123 92.0888 55.8868L109.36 61.0647C110.008 61.261 110.379 61.9446 110.182 62.5919L107.913 70.1696C107.819 70.4823 107.608 70.7441 107.324 70.8968C107.142 70.9841 106.939 71.035 106.742 71.035ZM89.9435 63.4936L105.921 68.2788L107.491 63.0428L92.3797 58.5121C91.5579 60.1702 90.7434 61.8356 89.9435 63.4936Z" fill="#B7996F"/>
<path d="M113.556 47.0728L99.1208 42.7458C97.8554 45.1093 96.6046 47.4946 95.3683 49.8799L111.28 54.6505L113.556 47.0728Z" fill="#F5DC3D"/>
<path d="M111.288 55.8722C111.171 55.8722 111.055 55.8577 110.938 55.8213L95.0267 51.0507C94.6776 50.9489 94.394 50.6944 94.2486 50.3598C94.1031 50.0253 94.1177 49.6472 94.2849 49.3199C95.5285 46.9128 96.7938 44.5057 98.0447 42.164C98.321 41.6549 98.9174 41.4004 99.4773 41.5677L113.913 45.8947C114.225 45.9892 114.487 46.2001 114.64 46.4837C114.793 46.7674 114.829 47.1019 114.735 47.4146L112.466 54.9923C112.298 55.5304 111.811 55.8722 111.288 55.8722ZM97.1356 49.1308L110.466 53.1233L112.037 47.8873L99.7319 44.2002C98.8592 45.8219 97.9938 47.4728 97.1356 49.1308Z" fill="#B7996F"/>
<path d="M118.102 31.9101L107.041 28.5939C105.688 30.892 104.343 33.2482 103.004 35.6408L115.833 39.4878L118.102 31.9101Z" fill="#F5DC3D"/>
<path d="M115.825 40.7167C115.709 40.7167 115.593 40.7021 115.476 40.6658L102.648 36.8187C102.292 36.7097 102.008 36.4479 101.863 36.1061C101.724 35.7643 101.746 35.3716 101.928 35.0516C103.317 32.5717 104.677 30.1937 105.979 27.9757C106.262 27.4884 106.844 27.263 107.382 27.423L118.443 30.7391C118.756 30.8337 119.018 31.0446 119.171 31.3282C119.323 31.6118 119.36 31.9463 119.265 32.259L116.996 39.8367C116.844 40.3749 116.356 40.7167 115.825 40.7167ZM104.815 34.9134L115.004 37.9678L116.574 32.7317L107.608 30.0483C106.699 31.5973 105.768 33.2262 104.815 34.9134Z" fill="#B7996F"/>
<path d="M122.64 16.7474L115.767 14.6893C114.284 16.8856 112.778 19.1981 111.273 21.6053L120.371 24.3324L122.64 16.7474Z" fill="#F5DC3D"/>
<path d="M120.371 25.5541C120.254 25.5541 120.138 25.5395 120.022 25.5032L110.931 22.7761C110.568 22.667 110.269 22.3906 110.139 22.0343C110.008 21.678 110.044 21.278 110.248 20.9507C111.768 18.5218 113.287 16.1801 114.764 13.9984C115.062 13.5548 115.615 13.3585 116.131 13.5112L123.003 15.5692C123.316 15.6638 123.578 15.8747 123.73 16.1583C123.883 16.4419 123.919 16.7764 123.825 17.0891L121.556 24.6669C121.381 25.2123 120.894 25.5541 120.371 25.5541ZM113.171 20.8925L119.549 22.8052L121.12 17.5691L116.284 16.1219C115.258 17.6491 114.211 19.249 113.171 20.8925Z" fill="#B7996F"/>
<path d="M124.916 9.16971L120.632 7.88251C119.04 9.98419 117.411 12.2604 115.767 14.6894L122.64 16.7474L124.916 9.16971Z" fill="#F5DC3D"/>
<path d="M122.64 17.9764C122.523 17.9764 122.4 17.9619 122.29 17.9255L115.418 15.8675C115.047 15.7584 114.749 15.4748 114.618 15.1039C114.487 14.7403 114.538 14.333 114.756 14.0058C116.436 11.5259 118.087 9.22062 119.658 7.14802C119.963 6.74078 120.494 6.56625 120.981 6.71896L125.265 8.00615C125.912 8.2025 126.283 8.8861 126.087 9.53333L123.818 17.111C123.723 17.4237 123.512 17.6855 123.229 17.8383C123.04 17.9255 122.843 17.9764 122.64 17.9764ZM117.723 13.9985L121.818 15.2275L123.389 9.99149L121.091 9.30061C120 10.7623 118.872 12.3404 117.723 13.9985Z" fill="#B7996F"/>
<path d="M120.37 24.3324L111.273 21.6053C109.862 23.8597 108.451 26.1941 107.04 28.5939L118.102 31.9101L120.37 24.3324Z" fill="#F5DC3D"/>
<path d="M118.102 33.1319C117.985 33.1319 117.862 33.1174 117.753 33.081L106.692 29.7649C106.328 29.6558 106.044 29.3867 105.906 29.0376C105.768 28.6886 105.797 28.2959 105.993 27.9686C107.433 25.5251 108.866 23.1616 110.248 20.9509C110.539 20.4854 111.113 20.2673 111.637 20.4273L120.727 23.1544C121.374 23.3507 121.745 24.0343 121.549 24.6815L119.28 32.2593C119.185 32.572 118.974 32.8338 118.691 32.9865C118.502 33.0883 118.298 33.1319 118.102 33.1319ZM108.888 27.8741L117.273 30.3903L118.843 25.1542L111.818 23.0526C110.859 24.5943 109.877 26.2087 108.888 27.8741Z" fill="#B7996F"/>
<path d="M118.378 114.603L127.614 117.374C128.13 115.076 128.661 112.465 129.199 109.592L120.065 106.858C119.483 109.716 118.916 112.32 118.378 114.603Z" fill="#F5DC3D"/>
<path d="M127.614 118.588C127.497 118.588 127.374 118.574 127.265 118.537L118.029 115.767C117.411 115.578 117.04 114.945 117.193 114.312C117.738 112.029 118.298 109.433 118.872 106.596C118.938 106.262 119.149 105.964 119.44 105.789C119.738 105.615 120.094 105.571 120.421 105.666L129.548 108.407C130.144 108.589 130.515 109.193 130.399 109.803C129.861 112.669 129.323 115.309 128.806 117.628C128.734 117.956 128.523 118.247 128.232 118.414C128.043 118.537 127.825 118.588 127.614 118.588ZM119.832 113.76L126.705 115.818C127.061 114.16 127.432 112.356 127.796 110.436L121.003 108.4C120.603 110.313 120.211 112.109 119.832 113.76Z" fill="#B7996F"/>
<path d="M67.4865 132.391L58.818 129.795C59.0725 132.718 59.487 135.62 60.0688 138.427L68.1774 140.856C67.8138 138.085 67.5883 135.242 67.4865 132.391Z" fill="#F5DC3D"/>
<path d="M68.1774 142.085C68.061 142.085 67.9447 142.07 67.8283 142.034L59.7197 139.605C59.2907 139.474 58.9634 139.118 58.8689 138.682C58.2871 135.853 57.858 132.9 57.5962 129.904C57.5599 129.504 57.7271 129.104 58.0398 128.849C58.3526 128.595 58.7743 128.508 59.167 128.624L67.8356 131.22C68.3374 131.373 68.6865 131.824 68.7083 132.347C68.8101 135.205 69.0355 138.02 69.3919 140.696C69.4428 141.11 69.2901 141.518 68.9701 141.787C68.7446 141.983 68.4683 142.085 68.1774 142.085ZM61.1233 137.467L66.7375 139.147C66.5266 137.242 66.3811 135.293 66.2939 133.307L60.2143 131.482C60.4397 133.526 60.7451 135.525 61.1233 137.467Z" fill="#B7996F"/>
<path d="M81.4857 78.7654L72.6063 76.1037C71.4354 78.6054 70.3228 81.0343 69.2756 83.3687L78.2932 86.0667C79.2967 83.725 80.3585 81.2888 81.4857 78.7654Z" fill="#F5DC3D"/>
<path d="M78.2932 87.2883C78.1768 87.2883 78.0605 87.2738 77.9441 87.2374L68.9265 84.5394C68.592 84.4376 68.3156 84.1976 68.1629 83.8776C68.0175 83.5576 68.0175 83.1868 68.1556 82.8668C69.2174 80.4888 70.3373 78.038 71.4936 75.58C71.7482 75.0345 72.3663 74.7509 72.9553 74.9255L81.8348 77.5871C82.1693 77.6889 82.4457 77.9289 82.5984 78.2489C82.7438 78.5689 82.7438 78.9398 82.6057 79.2598C81.5076 81.7178 80.4385 84.1685 79.4204 86.5466C79.2241 87.012 78.7732 87.2883 78.2932 87.2883ZM70.97 82.5904L77.6023 84.5758C78.315 82.9177 79.0568 81.2305 79.8058 79.5288L73.2753 77.5726C72.4827 79.267 71.7118 80.9469 70.97 82.5904Z" fill="#B7996F"/>
<path d="M68.1774 140.856L60.0688 138.427C60.7233 141.583 61.5815 144.63 62.6505 147.459L69.8573 149.619C69.1374 146.819 68.5774 143.881 68.1774 140.856Z" fill="#F5DC3D"/>
<path d="M69.8574 150.848C69.741 150.848 69.6247 150.834 69.5083 150.797L62.3015 148.637C61.9379 148.528 61.6397 148.252 61.5088 147.896C60.4398 145.059 59.5526 141.954 58.8762 138.682C58.789 138.26 58.9271 137.823 59.2471 137.533C59.5671 137.242 60.0107 137.14 60.4252 137.263L68.5338 139.692C68.992 139.831 69.3338 140.231 69.3992 140.703C69.7919 143.678 70.3446 146.579 71.05 149.321C71.1591 149.75 71.0282 150.201 70.7155 150.506C70.4755 150.724 70.1701 150.848 69.8574 150.848ZM63.5887 146.463L68.1775 147.837C67.7411 145.881 67.3702 143.859 67.0794 141.801L61.727 140.194C62.2433 142.398 62.8687 144.499 63.5887 146.463Z" fill="#B7996F"/>
<path d="M73.0935 158.855L67.9084 157.299C70.2137 160.338 72.9408 162.716 76.097 164.142C74.9843 162.549 73.988 160.775 73.0935 158.855Z" fill="#F5DC3D"/>
<path d="M76.0898 165.364C75.9225 165.364 75.748 165.327 75.588 165.255C72.3664 163.8 69.4502 161.371 66.9267 158.033C66.6067 157.611 66.5922 157.03 66.8976 156.593C67.2031 156.157 67.7485 155.968 68.2575 156.121L73.4427 157.677C73.7772 157.779 74.0536 158.019 74.199 158.331C75.0862 160.237 76.0607 161.953 77.1006 163.437C77.4133 163.887 77.3915 164.498 77.0352 164.92C76.7952 165.211 76.4461 165.364 76.0898 165.364ZM71.7119 159.72C71.9664 159.953 72.2209 160.179 72.4755 160.397C72.3882 160.222 72.3009 160.048 72.2209 159.873L71.7119 159.72Z" fill="#B7996F"/>
<path d="M69.8572 149.626L62.6504 147.466C64.0466 151.168 65.7993 154.521 67.9082 157.306L73.0933 158.862C71.7843 156.048 70.7081 152.935 69.8572 149.626Z" fill="#F5DC3D"/>
<path d="M73.0935 160.077C72.9772 160.077 72.8609 160.062 72.7445 160.026L67.5594 158.469C67.3121 158.397 67.0939 158.244 66.9339 158.033C64.8104 155.233 62.9851 151.823 61.5088 147.888C61.3416 147.452 61.4434 146.965 61.7561 146.623C62.0761 146.281 62.556 146.15 62.9996 146.288L70.2065 148.448C70.6137 148.572 70.9337 148.899 71.0428 149.314C71.8936 152.63 72.9554 155.662 74.1989 158.331C74.4026 158.768 74.3299 159.284 74.0171 159.648C73.7772 159.924 73.4426 160.077 73.0935 160.077ZM68.6429 156.244L70.9264 156.928C70.141 154.957 69.4429 152.841 68.8465 150.601L64.745 149.372C65.8867 151.961 67.1885 154.266 68.6429 156.244Z" fill="#B7996F"/>
<path d="M70.5046 106.407C70.9701 104.851 71.61 102.96 72.3882 100.815L63.1524 98.0442C62.2652 100.393 61.5598 102.429 61.0652 104.08C60.9198 104.567 60.7816 105.062 60.6507 105.556L69.9592 108.349C70.1338 107.695 70.3156 107.047 70.5046 106.407Z" fill="#F5DC3D"/>
<path d="M69.9591 109.571C69.8428 109.571 69.7191 109.556 69.61 109.52L60.3015 106.727C59.6688 106.538 59.298 105.877 59.4725 105.237C59.6107 104.728 59.7488 104.219 59.9016 103.724C60.3961 102.066 61.1088 100.008 62.0178 97.608C62.2432 97.0044 62.8977 96.6845 63.5159 96.8663L72.7517 99.637C73.0716 99.7315 73.3407 99.957 73.4935 100.262C73.6462 100.561 73.668 100.917 73.5516 101.23C72.7735 103.375 72.1408 105.229 71.6899 106.749C71.5008 107.375 71.3263 108.007 71.159 108.655C71.0718 108.975 70.8609 109.251 70.5773 109.411C70.3736 109.52 70.17 109.571 69.9591 109.571ZM62.1487 104.735L69.1083 106.822C69.181 106.567 69.2537 106.313 69.3264 106.058C69.7046 104.793 70.1991 103.302 70.7954 101.622L63.894 99.557C63.1959 101.448 62.6432 103.084 62.236 104.437C62.2069 104.531 62.1778 104.633 62.1487 104.735Z" fill="#B7996F"/>
<path d="M75.2389 93.4116L66.1049 90.6772C64.9704 93.3753 63.9814 95.8478 63.1523 98.0513L72.3881 100.822C73.1953 98.6113 74.148 96.1315 75.2389 93.4116Z" fill="#F5DC3D"/>
<path d="M72.3882 102.044C72.2719 102.044 72.1555 102.029 72.0392 101.993L62.8034 99.2223C62.4761 99.1278 62.2071 98.8951 62.0543 98.5896C61.9016 98.2842 61.8871 97.9351 62.0034 97.6152C62.847 95.3898 63.8433 92.8954 64.9778 90.1974C65.2178 89.6229 65.8577 89.3175 66.4613 89.4993L75.5953 92.2337C75.9226 92.3355 76.1989 92.5682 76.3444 92.8736C76.4971 93.1863 76.5043 93.5427 76.3734 93.8627C75.2971 96.5389 74.3372 99.0187 73.5373 101.229C73.3627 101.731 72.89 102.044 72.3882 102.044ZM64.7669 97.2588L71.6392 99.3169C72.2282 97.7242 72.89 96.0153 73.61 94.2045L66.8177 92.1682C66.0614 93.9718 65.3778 95.6735 64.7669 97.2588Z" fill="#B7996F"/>
<path d="M78.2932 86.0668L69.2755 83.3688C68.1265 85.9359 67.0648 88.3866 66.1048 90.6774L75.2388 93.4118C76.1697 91.1137 77.1878 88.6557 78.2932 86.0668Z" fill="#F5DC3D"/>
<path d="M75.239 94.6336C75.1226 94.6336 75.0063 94.619 74.8899 94.5827L65.7559 91.8483C65.4214 91.7465 65.1523 91.5138 64.9996 91.2011C64.8542 90.8884 64.8469 90.5247 64.9778 90.2048C65.9596 87.8704 67.0286 85.4051 68.1631 82.867C68.4103 82.3071 69.0357 82.0162 69.6321 82.1907L78.6497 84.8887C78.9842 84.9905 79.2605 85.2233 79.406 85.5432C79.5514 85.8559 79.5587 86.2196 79.4206 86.5468C78.3224 89.1212 77.2971 91.5865 76.3807 93.87C76.1844 94.3427 75.7335 94.6336 75.239 94.6336ZM67.7704 89.8921L74.5263 91.921C75.1881 90.2993 75.8935 88.6049 76.6353 86.845L69.9666 84.8451C69.1957 86.5759 68.4612 88.2631 67.7704 89.8921Z" fill="#B7996F"/>
<path d="M73.0936 158.855C73.9881 160.775 74.9844 162.549 76.097 164.142C76.7879 164.455 77.5006 164.724 78.2351 164.949L79.4859 160.768L73.0936 158.855Z" fill="#F5DC3D"/>
<path d="M78.2278 166.171C78.1114 166.171 77.9951 166.156 77.8787 166.12C77.1297 165.894 76.3588 165.604 75.588 165.262C75.3843 165.175 75.2171 165.029 75.0862 164.847C73.9735 163.247 72.9263 161.407 71.9809 159.371C71.7773 158.935 71.85 158.419 72.1627 158.055C72.4754 157.691 72.9772 157.546 73.4426 157.684L79.835 159.597C80.1477 159.691 80.4095 159.902 80.5622 160.186C80.7149 160.469 80.7513 160.804 80.6567 161.117L79.4059 165.298C79.2386 165.829 78.7587 166.171 78.2278 166.171ZM76.9042 163.16C77.0788 163.233 77.2533 163.306 77.4206 163.371L77.9587 161.582L75.4862 160.84C75.937 161.669 76.417 162.44 76.9042 163.16Z" fill="#B7996F"/>
<path d="M69.9592 108.349L60.6507 105.556C59.989 108.029 59.4799 110.647 59.1308 113.36L68.3739 116.13C68.7811 113.44 69.3047 110.829 69.9592 108.349Z" fill="#F5DC3D"/>
<path d="M68.3739 117.359C68.2575 117.359 68.1339 117.345 68.0248 117.308L58.7817 114.538C58.2072 114.363 57.8436 113.803 57.9163 113.207C58.2799 110.422 58.8036 107.745 59.4653 105.244C59.5526 104.924 59.7635 104.655 60.0544 104.487C60.3453 104.327 60.6871 104.291 60.9998 104.386L70.3083 107.178C70.941 107.367 71.3119 108.022 71.1373 108.662C70.5046 111.054 69.981 113.629 69.5811 116.319C69.5302 116.669 69.3265 116.981 69.0284 117.17C68.832 117.294 68.6066 117.359 68.3739 117.359ZM60.4834 112.494L67.3848 114.56C67.6975 112.705 68.0612 110.902 68.4829 109.185L61.5234 107.098C61.1089 108.822 60.7598 110.633 60.4834 112.494Z" fill="#B7996F"/>
<path d="M68.3738 116.138L59.1307 113.367C58.7889 115.992 58.5926 118.705 58.5417 121.454L67.5738 124.159C67.7193 121.432 67.9883 118.748 68.3738 116.138Z" fill="#F5DC3D"/>
<path d="M67.5666 125.381C67.4502 125.381 67.3339 125.366 67.2175 125.33L58.1853 122.624C57.6617 122.464 57.3054 121.977 57.3127 121.432C57.3708 118.625 57.5672 115.861 57.9163 113.214C57.9599 112.858 58.1635 112.538 58.4617 112.341C58.7671 112.145 59.138 112.094 59.4798 112.196L68.7228 114.967C69.3046 115.141 69.6683 115.716 69.581 116.319C69.2028 118.879 68.9338 121.534 68.781 124.224C68.7592 124.603 68.5701 124.944 68.2647 125.162C68.0611 125.301 67.8211 125.381 67.5666 125.381ZM59.7852 120.545L66.4466 122.537C66.5848 120.668 66.7739 118.814 67.0211 117.003L60.1779 114.952C59.9743 116.778 59.8434 118.647 59.7852 120.545Z" fill="#B7996F"/>
<path d="M67.5665 124.159L58.5344 121.454C58.4835 124.224 58.5707 127.024 58.8107 129.795L67.4793 132.391C67.392 129.642 67.4211 126.886 67.5665 124.159Z" fill="#F5DC3D"/>
<path d="M67.4867 133.613C67.3703 133.613 67.254 133.598 67.1376 133.562L58.4691 130.966C57.9891 130.82 57.6473 130.398 57.6037 129.897C57.3637 127.09 57.2691 124.239 57.32 121.424C57.3273 121.039 57.5164 120.683 57.8218 120.457C58.1273 120.232 58.5272 120.166 58.8908 120.275L67.923 122.981C68.4612 123.141 68.8248 123.657 68.7957 124.217C68.6502 126.915 68.6212 129.649 68.7157 132.34C68.7302 132.733 68.5557 133.111 68.243 133.351C68.0176 133.526 67.7558 133.613 67.4867 133.613ZM59.9672 128.864L66.214 130.74C66.1849 128.849 66.2067 126.944 66.294 125.061L59.7417 123.097C59.749 125.017 59.829 126.944 59.9672 128.864Z" fill="#B7996F"/>
<path d="M109.564 136.74L118.596 139.445C120.058 137.125 121.389 134.747 122.545 132.369L113.302 129.598C112.189 131.998 110.938 134.384 109.564 136.74Z" fill="#F5DC3D"/>
<path d="M118.596 140.674C118.48 140.674 118.364 140.66 118.247 140.623L109.215 137.918C108.859 137.809 108.568 137.547 108.43 137.198C108.292 136.849 108.321 136.456 108.51 136.129C109.862 133.809 111.099 131.438 112.189 129.089C112.444 128.537 113.062 128.26 113.651 128.435L122.894 131.206C123.236 131.307 123.52 131.555 123.665 131.889C123.811 132.217 123.803 132.595 123.643 132.915C122.472 135.315 121.12 137.736 119.629 140.107C119.404 140.463 119.011 140.674 118.596 140.674ZM111.389 136.013L118.051 138.005C119.047 136.391 119.964 134.755 120.8 133.126L113.957 131.075C113.171 132.726 112.306 134.376 111.389 136.013Z" fill="#B7996F"/>
<path d="M113.302 129.599L122.545 132.369C123.745 129.911 124.763 127.439 125.57 125.017L116.262 122.224C115.447 124.661 114.451 127.126 113.302 129.599Z" fill="#F5DC3D"/>
<path d="M122.545 133.598C122.429 133.598 122.312 133.584 122.196 133.547L112.953 130.777C112.611 130.675 112.335 130.428 112.189 130.108C112.044 129.78 112.044 129.41 112.196 129.09C113.338 126.624 114.32 124.188 115.105 121.839C115.316 121.214 115.985 120.872 116.618 121.054L125.926 123.846C126.246 123.941 126.508 124.159 126.661 124.457C126.814 124.748 126.843 125.097 126.734 125.41C125.919 127.868 124.879 130.391 123.65 132.915C123.439 133.337 123.003 133.598 122.545 133.598ZM114.996 128.828L121.898 130.893C122.698 129.191 123.396 127.49 123.999 125.817L117.04 123.73C116.443 125.403 115.76 127.111 114.996 128.828Z" fill="#B7996F"/>
<path d="M105.106 143.663L113.775 146.259C115.506 144.07 117.12 141.787 118.596 139.445L109.564 136.74C108.19 139.104 106.699 141.423 105.106 143.663Z" fill="#F5DC3D"/>
<path d="M113.775 147.488C113.658 147.488 113.542 147.474 113.426 147.437L104.757 144.841C104.379 144.725 104.081 144.441 103.95 144.07C103.819 143.699 103.884 143.285 104.11 142.965C105.673 140.761 107.157 138.463 108.51 136.136C108.793 135.649 109.375 135.416 109.92 135.584L118.952 138.289C119.316 138.398 119.614 138.674 119.745 139.031C119.876 139.387 119.84 139.787 119.636 140.114C118.131 142.492 116.487 144.827 114.742 147.037C114.495 147.321 114.138 147.488 113.775 147.488ZM107.077 142.979L113.324 144.856C114.502 143.336 115.622 141.765 116.684 140.158L110.131 138.194C109.164 139.809 108.139 141.416 107.077 142.979Z" fill="#B7996F"/>
<path d="M127.614 117.367L118.378 114.596C117.847 116.821 117.345 118.741 116.88 120.305C116.691 120.945 116.48 121.585 116.269 122.225L125.577 125.017C125.737 124.53 125.897 124.043 126.043 123.555C126.53 121.905 127.061 119.817 127.614 117.367Z" fill="#F5DC3D"/>
<path d="M125.57 126.239C125.454 126.239 125.338 126.224 125.221 126.188L115.913 123.395C115.593 123.301 115.331 123.083 115.178 122.784C115.026 122.486 114.996 122.144 115.106 121.832C115.316 121.199 115.52 120.574 115.709 119.948C116.16 118.436 116.662 116.538 117.193 114.312C117.273 113.985 117.484 113.701 117.774 113.534C118.065 113.367 118.414 113.323 118.734 113.425L127.97 116.196C128.588 116.378 128.952 117.01 128.814 117.636C128.254 120.123 127.716 122.232 127.214 123.904C127.061 124.406 126.901 124.901 126.734 125.402C126.559 125.919 126.087 126.239 125.57 126.239ZM117.818 121.417L124.778 123.504C124.807 123.403 124.836 123.308 124.865 123.206C125.272 121.846 125.709 120.166 126.167 118.217L119.265 116.152C118.836 117.89 118.429 119.403 118.051 120.668C117.971 120.908 117.898 121.163 117.818 121.417Z" fill="#B7996F"/>
<path d="M93.6451 156.753L100.852 158.913C103.303 157.131 105.695 155.066 107.979 152.79L99.8701 150.361C97.8775 152.659 95.7904 154.812 93.6451 156.753Z" fill="#F5DC3D"/>
<path d="M100.859 160.135C100.743 160.135 100.626 160.12 100.51 160.084L93.303 157.924C92.8812 157.801 92.5613 157.451 92.4594 157.022C92.3649 156.593 92.5031 156.142 92.8303 155.844C94.9248 153.946 96.9828 151.83 98.9536 149.554C99.2663 149.19 99.7681 149.045 100.234 149.183L108.342 151.612C108.757 151.735 109.069 152.07 109.178 152.484C109.28 152.906 109.164 153.343 108.858 153.648C106.488 156.012 104.044 158.113 101.586 159.895C101.361 160.055 101.113 160.135 100.859 160.135ZM96.0374 156.193L100.626 157.568C102.306 156.317 103.986 154.906 105.63 153.364L100.277 151.757C98.8954 153.314 97.4773 154.797 96.0374 156.193Z" fill="#B7996F"/>
<path d="M80.4531 165.451C83.8783 165.996 87.4563 165.509 91.056 164.236L85.8709 162.68C84.0674 163.793 82.2566 164.731 80.4531 165.451Z" fill="#F5DC3D"/>
<path d="M83.2965 166.891C82.2638 166.891 81.253 166.811 80.264 166.658C79.7186 166.571 79.2968 166.135 79.2386 165.582C79.1804 165.036 79.4931 164.513 80.0022 164.309C81.6893 163.64 83.4492 162.738 85.2309 161.64C85.5291 161.459 85.8927 161.408 86.2272 161.509L91.4124 163.066C91.9214 163.218 92.2705 163.677 92.2851 164.207C92.2996 164.738 91.9723 165.211 91.4706 165.393C88.6416 166.389 85.9 166.891 83.2965 166.891ZM86.0454 164.011C85.8782 164.113 85.7109 164.207 85.5436 164.309C85.8782 164.273 86.2127 164.222 86.5545 164.164L86.0454 164.011Z" fill="#B7996F"/>
<path d="M99.8702 150.354L107.979 152.783C110.008 150.754 111.949 148.565 113.775 146.259L105.106 143.663C103.455 145.998 101.703 148.245 99.8702 150.354Z" fill="#F5DC3D"/>
<path d="M107.979 154.012C107.862 154.012 107.746 153.997 107.63 153.961L99.5211 151.532C99.1211 151.415 98.8156 151.103 98.6993 150.703C98.5829 150.303 98.6775 149.874 98.9466 149.561C100.721 147.51 102.459 145.292 104.11 142.965C104.415 142.536 104.961 142.347 105.463 142.5L114.131 145.096C114.516 145.212 114.822 145.51 114.946 145.903C115.069 146.288 114.989 146.71 114.735 147.03C112.866 149.394 110.888 151.626 108.844 153.662C108.611 153.888 108.299 154.012 107.979 154.012ZM102.008 149.721L107.622 151.401C109.011 149.99 110.364 148.485 111.666 146.907L105.586 145.081C104.43 146.696 103.237 148.245 102.008 149.721Z" fill="#B7996F"/>
<path d="M85.8711 162.68L91.0562 164.237C94.3505 163.073 97.6521 161.24 100.859 158.913L93.6524 156.753C91.1144 159.051 88.5036 161.059 85.8711 162.68Z" fill="#F5DC3D"/>
<path d="M91.0562 165.458C90.9398 165.458 90.8162 165.444 90.7071 165.407L85.522 163.851C85.0638 163.713 84.722 163.313 84.6565 162.84C84.5911 162.36 84.8165 161.895 85.2311 161.64C87.7327 160.099 90.2926 158.15 92.8306 155.844C93.1506 155.553 93.5942 155.452 94.0014 155.575L101.208 157.735C101.652 157.866 101.986 158.244 102.066 158.702C102.146 159.16 101.957 159.626 101.579 159.895C98.183 162.36 94.7796 164.207 91.4634 165.386C91.3325 165.436 91.1943 165.458 91.0562 165.458ZM88.7363 162.266L91.0198 162.949C93.3251 162.098 95.6813 160.891 98.0594 159.35L93.9578 158.121C92.2197 159.662 90.4744 161.051 88.7363 162.266Z" fill="#B7996F"/>
<path d="M85.871 162.68L79.4787 160.767L78.2279 164.949C78.9624 165.167 79.7041 165.334 80.4532 165.451C82.2567 164.731 84.0675 163.793 85.871 162.68Z" fill="#F5DC3D"/>
<path d="M80.4531 166.673C80.3876 166.673 80.3222 166.665 80.264 166.658C79.4349 166.527 78.6277 166.345 77.8787 166.12C77.566 166.025 77.3042 165.815 77.1515 165.531C76.9987 165.247 76.9624 164.913 77.0569 164.6L78.3077 160.419C78.5041 159.771 79.1877 159.408 79.8349 159.597L86.2272 161.509C86.6854 161.648 87.0272 162.048 87.0926 162.52C87.1581 163 86.9326 163.466 86.5181 163.72C84.6128 164.891 82.7293 165.858 80.9112 166.578C80.7658 166.644 80.6058 166.673 80.4531 166.673ZM79.7695 164.076C79.9513 164.113 80.1331 164.149 80.3149 164.186C81.1221 163.851 81.9439 163.466 82.7802 163.037L80.3003 162.295L79.7695 164.076Z" fill="#B7996F"/>
<path d="M84.7947 71.4929L76.0679 68.8749C74.868 71.333 73.7117 73.7474 72.6064 76.0963L81.4858 78.758C82.5403 76.4017 83.6457 73.9728 84.7947 71.4929Z" fill="#F5DC3D"/>
<path d="M81.4857 79.987C81.3693 79.987 81.2529 79.9724 81.1366 79.9361L72.2571 77.2744C71.9154 77.1726 71.639 76.9253 71.4936 76.6053C71.3481 76.2781 71.3481 75.9072 71.5008 75.5872C72.6062 73.231 73.7698 70.7948 74.9697 68.344C75.2315 67.8059 75.8497 67.5368 76.4242 67.7114L85.1509 70.3294C85.4927 70.4312 85.769 70.6784 85.9145 70.9984C86.0599 71.3184 86.0599 71.6966 85.9072 72.0165C84.7582 74.5037 83.6455 76.9399 82.6056 79.267C82.402 79.7106 81.9584 79.987 81.4857 79.987ZM74.3225 75.34L80.8093 77.2817C81.5438 75.6454 82.3074 73.9655 83.0928 72.2638L76.7151 70.3512C75.9006 72.0311 75.0933 73.7037 74.3225 75.34Z" fill="#B7996F"/>
<path d="M129.461 27.0596L136.13 29.0595C135.984 26.0633 135.766 23.2271 135.453 20.5946L129.512 18.8129C129.548 21.46 129.534 24.2162 129.461 27.0596Z" fill="#F5DC3D"/>
<path d="M136.137 30.2811C136.02 30.2811 135.904 30.2666 135.788 30.2302L129.119 28.2304C128.588 28.0704 128.232 27.5831 128.246 27.0304C128.312 24.1797 128.334 21.4162 128.297 18.8273C128.29 18.4346 128.472 18.071 128.785 17.831C129.097 17.5983 129.497 17.5256 129.875 17.6347L135.817 19.4164C136.282 19.5545 136.624 19.9618 136.682 20.4418C136.988 23.0307 137.22 25.9105 137.366 28.9939C137.388 29.3939 137.213 29.7721 136.9 30.0193C136.675 30.1866 136.406 30.2811 136.137 30.2811ZM130.704 26.1505L134.821 27.3795C134.697 25.3069 134.537 23.3507 134.333 21.5253L130.755 20.4563C130.763 22.2889 130.748 24.1943 130.704 26.1505Z" fill="#B7996F"/>
<path d="M129.512 18.8129L135.453 20.5946C135.068 17.3366 134.537 14.3986 133.854 11.8533L129.192 10.457C129.374 13.0823 129.476 15.8821 129.512 18.8129Z" fill="#F5DC3D"/>
<path d="M135.453 21.8162C135.337 21.8162 135.221 21.8017 135.104 21.7653L129.163 19.9836C128.654 19.8309 128.297 19.3582 128.29 18.8273C128.254 15.8748 128.145 13.0895 127.977 10.537C127.948 10.137 128.123 9.75153 128.435 9.497C128.748 9.24974 129.163 9.16249 129.548 9.27884L134.21 10.6751C134.617 10.7987 134.93 11.1187 135.039 11.526C135.715 14.0495 136.268 17.0529 136.668 20.4418C136.719 20.849 136.559 21.2563 136.239 21.5253C136.02 21.7144 135.744 21.8162 135.453 21.8162ZM130.726 17.8965L133.999 18.8783C133.679 16.6457 133.293 14.6167 132.85 12.8277L130.53 12.1296C130.624 13.9549 130.69 15.8893 130.726 17.8965Z" fill="#B7996F"/>
<path d="M129.156 35.2262L136.333 37.3788C136.326 34.499 136.261 31.7137 136.137 29.0593L129.468 27.0594C129.403 29.7138 129.294 32.4409 129.156 35.2262Z" fill="#F5DC3D"/>
<path d="M136.333 38.6006C136.217 38.6006 136.1 38.5861 135.984 38.5497L128.806 36.3971C128.268 36.2372 127.905 35.7281 127.934 35.1608C128.079 32.3465 128.181 29.6121 128.239 27.0232C128.246 26.645 128.435 26.2887 128.741 26.0632C129.054 25.8378 129.446 25.7723 129.81 25.8814L136.479 27.8813C136.973 28.034 137.322 28.4776 137.351 28.994C137.475 31.6047 137.54 34.4191 137.555 37.3716C137.555 37.7571 137.373 38.1279 137.06 38.3534C136.849 38.5134 136.595 38.6006 136.333 38.6006ZM130.428 34.3245L135.104 35.7281C135.082 33.7355 135.031 31.8083 134.959 29.9757L130.653 28.6812C130.588 30.5139 130.515 32.3974 130.428 34.3245Z" fill="#B7996F"/>
<path d="M133.861 11.8532C132.595 7.1553 130.799 3.81732 128.334 2.39923C128.719 4.84999 129.003 7.55526 129.199 10.4569L133.861 11.8532Z" fill="#F5DC3D"/>
<path d="M133.861 13.0748C133.744 13.0748 133.628 13.0603 133.512 13.0239L128.85 11.6276C128.363 11.4822 128.014 11.0458 127.978 10.5368C127.781 7.59879 127.49 4.92258 127.127 2.58818C127.054 2.12275 127.25 1.65733 127.643 1.38825C128.036 1.11918 128.538 1.10463 128.945 1.33734C131.614 2.87907 133.614 6.21705 135.039 11.5331C135.155 11.9621 135.032 12.4203 134.712 12.7257C134.479 12.9512 134.173 13.0748 133.861 13.0748ZM130.356 9.52593L132.028 10.0277C131.432 8.28237 130.763 6.84974 130.014 5.73708C130.145 6.93701 130.261 8.20238 130.356 9.52593Z" fill="#B7996F"/>
<path d="M124.916 9.16976L127.105 1.86111C126.676 1.73021 126.239 1.65751 125.788 1.62842C124.116 3.46103 122.392 5.5627 120.632 7.88256L124.916 9.16976Z" fill="#F5DC3D"/>
<path d="M124.916 10.3988C124.799 10.3988 124.683 10.3843 124.567 10.3479L120.283 9.06071C119.898 8.94435 119.593 8.64617 119.469 8.26801C119.345 7.88258 119.418 7.46808 119.658 7.1481C121.483 4.74097 123.243 2.6102 124.887 0.806674C125.134 0.530327 125.49 0.384868 125.861 0.406685C126.414 0.435774 126.952 0.530318 127.461 0.683035C128.108 0.879387 128.479 1.55571 128.283 2.21022L126.094 9.51884C125.927 10.0497 125.439 10.3988 124.916 10.3988ZM122.683 7.22808L124.087 7.64989L125.105 4.261C124.32 5.17731 123.512 6.1736 122.683 7.22808Z" fill="#B7996F"/>
<path d="M129.199 10.457C129.003 7.54811 128.719 4.85011 128.334 2.39935C127.941 2.17391 127.534 1.9921 127.105 1.86847L124.916 9.1771L129.199 10.457Z" fill="#F5DC3D"/>
<path d="M129.199 11.6787C129.083 11.6787 128.966 11.6642 128.85 11.6278L124.567 10.3406C124.254 10.2461 123.992 10.0352 123.839 9.75159C123.687 9.46797 123.65 9.13345 123.745 8.82074L125.934 1.51211C126.028 1.1994 126.239 0.937603 126.523 0.784885C126.807 0.632167 127.141 0.595802 127.454 0.690342C127.963 0.84306 128.465 1.06122 128.937 1.33756C129.257 1.51937 129.475 1.83936 129.534 2.21024C129.912 4.61737 130.21 7.3663 130.414 10.377C130.443 10.777 130.268 11.1624 129.955 11.4169C129.745 11.5842 129.468 11.6787 129.199 11.6787ZM126.436 8.34805L127.839 8.76983C127.73 7.43173 127.599 6.15908 127.446 4.95188L126.436 8.34805Z" fill="#B7996F"/>
<path d="M127.199 59.4211L135.337 61.8573C135.541 59.1447 135.722 56.4395 135.868 53.756L127.992 51.3925C127.752 54.0687 127.483 56.7449 127.199 59.4211Z" fill="#F5DC3D"/>
<path d="M135.337 63.079C135.221 63.079 135.104 63.0645 134.988 63.0281L126.85 60.5919C126.283 60.4246 125.919 59.8719 125.985 59.2901C126.268 56.6212 126.538 53.9232 126.778 51.2834C126.807 50.9198 127.003 50.5852 127.308 50.3816C127.614 50.178 127.992 50.1198 128.348 50.2216L136.224 52.5851C136.77 52.7451 137.126 53.2614 137.097 53.8287C136.951 56.4467 136.77 59.1811 136.559 61.9518C136.53 62.3227 136.341 62.6572 136.035 62.8681C135.824 63.0063 135.577 63.079 135.337 63.079ZM128.523 58.5411L134.224 60.2501C134.363 58.352 134.486 56.4758 134.588 54.6577L129.068 53.0069C128.901 54.8323 128.719 56.6867 128.523 58.5411Z" fill="#B7996F"/>
<path d="M126.283 67.4061L134.646 69.9151C134.901 67.2389 135.133 64.5481 135.337 61.8574L127.199 59.4212C126.916 62.0974 126.61 64.759 126.283 67.4061Z" fill="#F5DC3D"/>
<path d="M134.646 71.1368C134.53 71.1368 134.413 71.1222 134.297 71.0859L125.934 68.577C125.367 68.4024 124.996 67.8497 125.068 67.2534C125.396 64.5699 125.701 61.8865 125.977 59.283C126.014 58.9194 126.217 58.5921 126.516 58.3958C126.821 58.1922 127.192 58.1412 127.548 58.243L135.686 60.6793C136.239 60.8465 136.595 61.3701 136.551 61.9446C136.355 64.5772 136.122 67.297 135.86 70.0241C135.824 70.3877 135.628 70.7223 135.322 70.9259C135.126 71.0641 134.886 71.1368 134.646 71.1368ZM127.628 66.5334L133.57 68.3151C133.744 66.4389 133.897 64.5772 134.042 62.7519L128.261 61.0211C128.057 62.8319 127.846 64.679 127.628 66.5334Z" fill="#B7996F"/>
<path d="M128.654 43.335L136.217 45.604C136.297 42.7969 136.34 40.048 136.333 37.379L129.155 35.2264C129.017 37.8881 128.85 40.5934 128.654 43.335Z" fill="#F5DC3D"/>
<path d="M136.217 46.8257C136.101 46.8257 135.984 46.8111 135.868 46.7747L128.305 44.5058C127.752 44.3385 127.396 43.8149 127.432 43.2477C127.636 40.4697 127.803 37.7499 127.934 35.1682C127.956 34.79 128.145 34.4482 128.45 34.2301C128.756 34.0119 129.148 33.9465 129.505 34.0555L136.682 36.2081C137.199 36.3608 137.555 36.8408 137.555 37.379C137.562 39.9897 137.526 42.775 137.439 45.6476C137.424 46.0257 137.242 46.382 136.93 46.6075C136.719 46.7456 136.472 46.8257 136.217 46.8257ZM129.941 42.4405L135.039 43.9677C135.083 42.0114 135.112 40.1133 135.112 38.288L130.297 36.8481C130.196 38.6662 130.079 40.5351 129.941 42.4405Z" fill="#B7996F"/>
<path d="M127.992 51.3997L135.868 53.7632C136.021 51.007 136.137 48.2799 136.217 45.6037L128.654 43.3348C128.457 45.9964 128.239 48.6944 127.992 51.3997Z" fill="#F5DC3D"/>
<path d="M135.868 54.9777C135.751 54.9777 135.635 54.9631 135.519 54.9268L127.643 52.5633C127.083 52.396 126.727 51.8579 126.777 51.2834C127.025 48.5417 127.25 45.8365 127.439 43.2403C127.468 42.8694 127.657 42.5348 127.963 42.3239C128.268 42.1131 128.654 42.0549 129.01 42.1567L136.573 44.4256C137.104 44.5856 137.46 45.0801 137.446 45.6328C137.366 48.2872 137.249 51.0361 137.097 53.8214C137.075 54.1923 136.886 54.5414 136.58 54.7523C136.362 54.905 136.115 54.9777 135.868 54.9777ZM129.301 50.5125L134.733 52.1415C134.828 50.2362 134.908 48.3454 134.966 46.5055L129.759 44.9492C129.621 46.76 129.468 48.629 129.301 50.5125Z" fill="#B7996F"/>
<path d="M125.788 1.63573C122.945 1.46847 119.607 3.26471 115.971 6.4936L120.632 7.88989C122.392 5.57003 124.116 3.46834 125.788 1.63573Z" fill="#F5DC3D"/>
<path d="M120.625 9.11142C120.509 9.11142 120.392 9.09689 120.276 9.06053L115.615 7.66424C115.193 7.53334 114.865 7.19155 114.771 6.75521C114.676 6.31887 114.822 5.868 115.156 5.5771C119.28 1.91915 122.77 0.217434 125.861 0.413786C126.334 0.442875 126.748 0.733772 126.923 1.17011C127.105 1.60644 127.01 2.10822 126.697 2.45729C125.105 4.20264 123.396 6.2825 121.607 8.63145C121.367 8.93688 121.003 9.11142 120.625 9.11142ZM118.502 5.96981L120.174 6.47158C120.981 5.42437 121.774 4.42807 122.552 3.49722C121.309 4.01355 119.956 4.84261 118.502 5.96981Z" fill="#B7996F"/>
<path d="M95.3684 49.88L87.2307 47.4438C85.9217 49.8 84.6345 52.1708 83.3764 54.5488L91.7395 57.0505C92.9249 54.6651 94.1321 52.2726 95.3684 49.88Z" fill="#F5DC3D"/>
<path d="M91.7396 58.2793C91.6232 58.2793 91.5068 58.2648 91.3905 58.2284L83.0274 55.7195C82.6783 55.6177 82.3874 55.3559 82.2492 55.0214C82.1111 54.6868 82.1256 54.3014 82.3001 53.9741C83.5728 51.5816 84.8745 49.1817 86.169 46.8473C86.4453 46.3455 87.0417 46.1055 87.5943 46.2655L95.732 48.7017C96.0811 48.8036 96.3647 49.0581 96.5102 49.3926C96.6556 49.7271 96.6411 50.1053 96.4738 50.4326C95.2593 52.7815 94.0449 55.1886 92.8522 57.5885C92.6195 58.0248 92.1904 58.2793 91.7396 58.2793ZM85.1581 53.8069L91.0996 55.5886C91.9286 53.9305 92.7649 52.2724 93.6085 50.6362L87.8271 48.9054C86.9326 50.5125 86.0454 52.1561 85.1581 53.8069Z" fill="#B7996F"/>
<path d="M99.1211 42.7458L91.2452 40.3823C89.8926 42.7022 88.5545 45.0584 87.2382 47.4437L95.3759 49.8799C96.5976 47.4873 97.8557 45.1093 99.1211 42.7458Z" fill="#F5DC3D"/>
<path d="M95.3685 51.1016C95.2521 51.1016 95.1358 51.087 95.0194 51.0507L86.8817 48.6144C86.5254 48.5054 86.2418 48.2435 86.0964 47.9017C85.9582 47.56 85.98 47.1745 86.1618 46.8473C87.5144 44.4111 88.8671 42.0257 90.1834 39.7641C90.467 39.2768 91.0488 39.0441 91.5942 39.2041L99.4701 41.5676C99.8191 41.6767 100.11 41.9312 100.248 42.273C100.386 42.6148 100.372 43.0002 100.197 43.3202C98.9537 45.6474 97.6956 48.0399 96.4593 50.4398C96.2412 50.8543 95.8194 51.1016 95.3685 51.1016ZM89.0416 46.7091L94.7431 48.4181C95.6012 46.76 96.4666 45.1092 97.332 43.4875L91.8123 41.8367C90.9033 43.4075 89.9725 45.0438 89.0416 46.7091Z" fill="#B7996F"/>
<path d="M125.265 75.3619L133.817 77.929C134.115 75.2819 134.392 72.6058 134.646 69.915L126.283 67.4061C125.963 70.0895 125.621 72.7439 125.265 75.3619Z" fill="#F5DC3D"/>
<path d="M133.817 79.1507C133.701 79.1507 133.577 79.1362 133.468 79.0998L124.916 76.5327C124.341 76.3582 123.978 75.7909 124.058 75.1946C124.414 72.5475 124.756 69.8786 125.076 67.2533C125.119 66.8969 125.316 66.5769 125.621 66.3733C125.919 66.177 126.297 66.1188 126.639 66.2279L135.002 68.7368C135.562 68.9041 135.926 69.4422 135.868 70.024C135.621 72.6202 135.344 75.3255 135.039 78.0599C134.995 78.4235 134.799 78.7434 134.501 78.9471C134.29 79.078 134.057 79.1507 133.817 79.1507ZM126.617 74.4892L132.763 76.3291C132.966 74.4528 133.155 72.5984 133.33 70.7949L127.323 68.9913C127.097 70.8167 126.865 72.6565 126.617 74.4892Z" fill="#B7996F"/>
<path d="M103.004 35.6481L95.4413 33.3792C94.0377 35.6554 92.6342 37.997 91.2452 40.3824L99.121 42.7458C100.401 40.3533 101.695 37.9825 103.004 35.6481Z" fill="#F5DC3D"/>
<path d="M99.1208 43.9675C99.0045 43.9675 98.8881 43.9529 98.7718 43.9166L90.8959 41.5531C90.5396 41.444 90.2486 41.1822 90.1105 40.8331C89.9723 40.484 90.0014 40.0913 90.1905 39.7713C91.5868 37.3715 93.0049 35.0008 94.4011 32.7391C94.692 32.2664 95.2665 32.0482 95.7974 32.2082L103.361 34.4771C103.717 34.5862 104.001 34.848 104.146 35.1898C104.284 35.5316 104.262 35.9243 104.081 36.2443C102.808 38.5132 101.506 40.8986 100.212 43.3202C99.979 43.7275 99.5572 43.9675 99.1208 43.9675ZM93.0848 39.655L98.51 41.284C99.4045 39.6186 100.306 37.9751 101.186 36.3825L95.9792 34.8262C95.0193 36.397 94.052 38.0115 93.0848 39.655Z" fill="#B7996F"/>
<path d="M91.7396 57.0505L83.3764 54.5488C82.1111 56.9341 80.8675 59.3267 79.6603 61.6975L88.2125 64.2646C89.3615 61.8793 90.5324 59.4722 91.7396 57.0505Z" fill="#F5DC3D"/>
<path d="M88.2126 65.4789C88.0963 65.4789 87.9799 65.4643 87.8635 65.428L79.3114 62.8681C78.9623 62.7663 78.6787 62.5118 78.5405 62.1773C78.395 61.8427 78.4096 61.4646 78.5769 61.1373C79.8131 58.7157 81.064 56.3013 82.3003 53.9741C82.5766 53.4578 83.1729 53.2105 83.7329 53.3778L92.096 55.8868C92.4451 55.9886 92.7214 56.2431 92.8669 56.5703C93.0123 56.9049 92.9978 57.2758 92.8378 57.603C91.6524 59.9811 90.4743 62.4027 89.3253 64.7953C89.1144 65.2171 88.678 65.4789 88.2126 65.4789ZM81.4203 60.941L87.5654 62.7809C88.3653 61.1228 89.1798 59.4574 89.9943 57.8066L83.9874 56.0031C83.1366 57.6248 82.2712 59.2756 81.4203 60.941Z" fill="#B7996F"/>
<path d="M88.2125 64.2572L79.6603 61.6901C78.4241 64.1117 77.2314 66.5116 76.0751 68.8751L84.8018 71.4931C85.9 69.1223 87.0417 66.7007 88.2125 64.2572Z" fill="#F5DC3D"/>
<path d="M84.7946 72.7221C84.6782 72.7221 84.5619 72.7075 84.4455 72.6712L75.7188 70.0532C75.377 69.9513 75.0934 69.6968 74.9479 69.3696C74.8025 69.0423 74.8097 68.6641 74.9697 68.3442C76.1478 65.9298 77.3623 63.5081 78.5695 61.1446C78.8386 60.621 79.4422 60.3592 80.0094 60.5265L88.5616 63.0863C88.9034 63.1881 89.187 63.4354 89.3325 63.7626C89.4779 64.0899 89.4706 64.4608 89.3179 64.788C88.1689 67.1806 87.0199 69.6096 85.9072 72.0094C85.7036 72.453 85.2673 72.7221 84.7946 72.7221ZM77.8059 68.1187L84.1328 70.0168C84.9109 68.3514 85.6963 66.6788 86.489 65.0207L80.2858 63.159C79.4567 64.7953 78.6277 66.4607 77.8059 68.1187Z" fill="#B7996F"/>
<path d="M115.767 14.6893L109.826 12.9076C108.117 14.9293 106.371 17.1764 104.604 19.6054L111.273 21.6052C112.778 19.1981 114.284 16.8855 115.767 14.6893Z" fill="#F5DC3D"/>
<path d="M111.273 22.8269C111.157 22.8269 111.04 22.8124 110.924 22.776L104.255 20.7762C103.877 20.6598 103.572 20.3689 103.448 19.9908C103.324 19.6126 103.383 19.1981 103.623 18.8781C105.448 16.3764 107.222 14.1002 108.895 12.1149C109.208 11.744 109.717 11.5913 110.182 11.7294L116.124 13.5112C116.495 13.6202 116.793 13.9039 116.924 14.2747C117.055 14.6384 117.004 15.0456 116.785 15.3729C115.324 17.5327 113.818 19.8453 112.32 22.2524C112.088 22.616 111.688 22.8269 111.273 22.8269ZM106.619 18.9363L110.735 20.1653C111.768 18.5218 112.808 16.9218 113.826 15.3874L110.248 14.3184C109.077 15.7219 107.862 17.2709 106.619 18.9363Z" fill="#B7996F"/>
<path d="M107.041 28.5941L99.8628 26.4415C98.3865 28.6668 96.9103 30.9866 95.434 33.3792L102.997 35.6482C104.343 33.2483 105.688 30.8921 107.041 28.5941Z" fill="#F5DC3D"/>
<path d="M103.005 36.8699C102.888 36.8699 102.772 36.8553 102.656 36.819L95.0924 34.55C94.7287 34.4409 94.4379 34.1718 94.2997 33.8155C94.1615 33.4592 94.2052 33.0592 94.4015 32.7392C95.8996 30.3103 97.3977 27.9686 98.8521 25.7724C99.1503 25.3215 99.7102 25.1179 100.227 25.2779L107.404 27.4304C107.768 27.5395 108.052 27.8086 108.19 28.1577C108.328 28.5067 108.299 28.8994 108.102 29.2267C106.808 31.4229 105.455 33.7864 104.074 36.2517C103.848 36.6371 103.434 36.8699 103.005 36.8699ZM97.3177 32.6665L102.408 34.1937C103.354 32.5138 104.285 30.8848 105.194 29.3212L100.379 27.8813C99.3757 29.4158 98.3503 31.0157 97.3177 32.6665Z" fill="#B7996F"/>
<path d="M120.632 7.88976L115.971 6.49347C114 8.23882 111.942 10.406 109.826 12.9149L115.767 14.6966C117.411 12.2677 119.032 9.98417 120.632 7.88976Z" fill="#F5DC3D"/>
<path d="M115.767 15.9111C115.651 15.9111 115.535 15.8966 115.418 15.8602L109.477 14.0785C109.084 13.9622 108.771 13.6495 108.655 13.2568C108.539 12.8641 108.626 12.435 108.895 12.115C111.098 9.50426 113.2 7.30076 115.156 5.56996C115.476 5.28634 115.913 5.1918 116.32 5.31543L120.981 6.71172C121.367 6.82807 121.672 7.12623 121.796 7.50439C121.92 7.88255 121.847 8.30435 121.607 8.62433C120.058 10.6606 118.436 12.9368 116.785 15.373C116.545 15.7221 116.167 15.9111 115.767 15.9111ZM111.986 12.2823L115.258 13.264C116.393 11.606 117.513 10.0352 118.596 8.55888L116.269 7.86073C114.916 9.10428 113.476 10.5878 111.986 12.2823Z" fill="#B7996F"/>
<path d="M111.273 21.6052L104.604 19.6053C103.033 21.7579 101.455 24.0487 99.8627 26.4485L107.04 28.6011C108.451 26.194 109.869 23.8596 111.273 21.6052Z" fill="#F5DC3D"/>
<path d="M107.04 29.8231C106.924 29.8231 106.808 29.8085 106.691 29.7722L99.5136 27.6196C99.1427 27.5105 98.8445 27.2269 98.7136 26.8633C98.5827 26.4996 98.6264 26.0924 98.8445 25.7724C100.466 23.3217 102.073 21.0091 103.615 18.8856C103.921 18.4638 104.459 18.282 104.953 18.4347L111.622 20.4346C111.986 20.5437 112.284 20.82 112.415 21.1763C112.546 21.5327 112.509 21.9327 112.306 22.2599C110.931 24.4561 109.513 26.7978 108.088 29.2195C107.869 29.5976 107.462 29.8231 107.04 29.8231ZM101.797 25.7506L106.473 27.1541C107.455 25.4961 108.429 23.8744 109.389 22.3254L105.084 21.0309C104.015 22.5144 102.91 24.0998 101.797 25.7506Z" fill="#B7996F"/>
<g opacity="0.2">
<path d="M81.9803 56.3014C81.9876 56.3014 81.9876 56.3014 81.9803 56.3014C84.7511 52.1198 87.4782 48.1855 90.0962 44.593C93.1942 40.346 96.2194 36.4699 99.0774 33.081C102.837 28.6231 106.437 24.8633 109.789 21.8889C116.96 15.5257 123.112 12.5877 128.581 12.9077C129.585 12.9659 130.566 13.1404 131.497 13.4168C132.428 13.6931 133.344 14.0931 134.21 14.5949C135.068 15.0894 135.89 15.693 136.668 16.3911C136.362 14.6239 136.013 12.995 135.621 11.5332C134.152 6.07176 132.079 2.63197 129.272 1.01025C128.756 0.712089 128.217 0.47936 127.672 0.312098C127.119 0.144835 126.545 0.043043 125.956 0.0139539C122.727 -0.175125 119.098 1.55568 114.873 5.30817C112.895 7.06079 110.771 9.27882 108.553 11.9114C106.866 13.9113 105.084 16.1948 103.252 18.7037C101.71 20.8199 100.096 23.1471 98.4666 25.6051C97.0194 27.794 95.514 30.143 94.0087 32.5865C92.6197 34.8336 91.2016 37.2044 89.7907 39.626C88.4745 41.895 87.1146 44.2803 85.7619 46.7165C84.4747 49.0364 83.173 51.4362 81.8931 53.8506C80.6495 56.1923 79.3987 58.5994 78.1624 61.0211C77.2243 62.8609 76.2934 64.7226 75.3771 66.5771C77.617 63.0064 79.835 59.5521 81.9803 56.3014Z" fill="#272425"/>
</g>
<g opacity="0.2">
<path d="M135.511 78.2635C134.842 81.2524 134.195 83.7759 133.599 85.7758C133.417 86.3721 133.228 86.9757 133.024 87.5793C132.042 90.5319 130.799 93.5644 129.323 96.5897C127.919 99.4695 126.297 102.371 124.501 105.215C122.698 108.073 120.727 110.858 118.632 113.512C116.4 116.341 114.022 119.017 111.571 121.461C108.728 124.304 105.79 126.828 102.837 128.966C98.7428 131.94 94.6339 134.166 90.6342 135.584C87.2089 136.798 83.871 137.409 80.693 137.409C79.4349 137.409 78.184 137.314 76.9841 137.118C75.966 136.958 74.9842 136.733 74.0679 136.456C74.0679 136.456 74.0679 136.456 74.0607 136.456C73.1371 136.18 72.199 135.824 71.2536 135.402C67.3193 133.62 63.7704 130.668 60.7015 126.61C59.327 124.792 58.0617 122.755 56.8981 120.537C56.8908 120.726 56.8836 120.908 56.8763 121.097C56.8181 123.933 56.9199 126.799 57.1599 129.628C57.4217 132.646 57.8508 135.62 58.4398 138.471C59.1234 141.78 60.0179 144.907 61.0942 147.772C62.5923 151.75 64.4467 155.204 66.592 158.048C69.1664 161.451 72.1553 163.938 75.4569 165.429C76.2423 165.785 77.035 166.084 77.8131 166.316C77.8131 166.316 77.8132 166.316 77.8204 166.316C78.5913 166.549 79.4203 166.731 80.2712 166.869C81.282 167.029 82.3292 167.109 83.391 167.109C86.0526 167.109 88.867 166.593 91.7396 165.574C95.0994 164.382 98.5464 162.513 101.986 160.018C104.466 158.222 106.931 156.099 109.317 153.713C111.375 151.663 113.367 149.415 115.244 147.037C117.003 144.812 118.662 142.47 120.174 140.071C121.679 137.685 123.039 135.242 124.218 132.827C125.454 130.282 126.501 127.737 127.33 125.257C127.497 124.748 127.665 124.246 127.81 123.744C128.312 122.072 128.85 119.948 129.417 117.439C129.941 115.119 130.479 112.472 131.017 109.592C131.483 107.105 131.948 104.451 132.392 101.702C132.813 99.135 133.221 96.466 133.613 93.7753C133.991 91.1646 134.355 88.4883 134.697 85.8122C135.039 83.165 135.359 80.4743 135.657 77.8126C135.671 77.6599 135.693 77.5072 135.708 77.3545C135.642 77.6527 135.577 77.9581 135.511 78.2635Z" fill="#272425"/>
</g>
<path d="M122.32 136.173C101.717 136.667 87.7763 146.128 81.464 154.135C80.5986 143.976 74.1554 128.406 57.2255 116.661C35.4887 101.593 0 107.774 0 107.774C0 107.774 30.3472 108.902 36.0341 116.508C40.063 121.897 45.3644 140.863 58.9636 154.702C59.6399 158.28 62.4543 173.945 61.2907 181.923C59.9744 190.969 64.0469 194.547 68.8611 195.994L68.9702 196.031C73.7845 197.471 79.1514 196.722 83.0275 188.446C86.4528 181.144 97.4121 169.603 99.9429 166.993C118.909 162.913 133.766 149.99 140.1 147.707C149.031 144.485 174.993 160.229 174.993 160.229C174.993 160.229 148.769 135.54 122.32 136.173Z" fill="#6DB477"/>
<g opacity="0.2">
<path d="M75.2171 187.697L75.108 187.661C70.2938 186.221 66.2286 182.635 67.5376 173.589C68.6939 165.604 65.8868 149.947 65.2105 146.369C52.9421 133.882 47.4298 117.221 43.5027 110.131C23.1476 103.746 0 107.775 0 107.775C0 107.775 30.3472 108.902 36.0341 116.509C40.063 121.897 45.3644 140.863 58.9636 154.703C59.6399 158.281 62.4543 173.945 61.2907 181.923C59.9744 190.969 64.0469 194.547 68.8611 195.995L68.9702 196.031C73.7845 197.471 79.1514 196.722 83.0275 188.446C83.2603 187.951 83.5293 187.442 83.8202 186.912C81.0422 188.635 78.0388 188.541 75.2171 187.697Z" fill="#272425"/>
<path d="M106.197 158.659C104.03 160.891 95.7103 169.64 91.2015 176.701C94.9031 172.265 98.6047 168.374 99.95 166.993C118.916 162.913 133.773 149.99 140.108 147.707C149.038 144.485 175 160.23 175 160.23C175 160.23 161.408 147.445 143.925 140.514C136.668 144.42 123.054 155.03 106.197 158.659Z" fill="#272425"/>
</g>
</svg>
