<svg width="45" height="45" viewBox="0 0 45 45" fill="none" xmlns="http://www.w3.org/2000/svg">
<path d="M35.49 0H9.51001C4.25778 0 0 4.25774 0 9.50997V35.4901C0 40.7423 4.25778 45.0001 9.51001 45.0001H35.49C40.7423 45.0001 45 40.7423 45 35.4901V9.50997C45 4.25774 40.7423 0 35.49 0Z" fill="url(#paint0_linear_908_201)"/>
<path d="M10.6251 15.0001V15.0391C10.5159 15.0374 10.4081 15.0644 10.3126 15.1172C10.299 15.1297 10.286 15.1427 10.2735 15.1563C10.2605 15.1559 10.2475 15.1559 10.2345 15.1563C10.2196 15.1814 10.2066 15.2075 10.1954 15.2344C10.1671 15.2581 10.141 15.2843 10.1173 15.3126C10.1037 15.325 10.0907 15.338 10.0782 15.3516C10.0413 15.4118 10.0149 15.4779 10.0001 15.5469C9.99846 15.573 9.99846 15.599 10.0001 15.6251C9.99968 15.6381 9.99968 15.6511 10.0001 15.6641V29.8829C10.0001 30.0486 10.066 30.2076 10.1832 30.3248C10.3004 30.442 10.4593 30.5079 10.6251 30.5079H27.7735C28.7074 31.2878 29.7161 31.9574 30.547 32.6173C30.6578 32.706 30.7956 32.7544 30.9376 32.7544C31.0796 32.7544 31.2174 32.706 31.3282 32.6173C32.4269 31.7065 33.7424 30.7164 34.8048 29.6094C35.8672 28.5026 36.7116 27.2452 36.797 25.7813C36.8106 25.7689 36.8236 25.7558 36.836 25.7423C36.836 24.0484 35.5963 22.6215 33.9845 22.3048V15.7422C34.0125 15.5978 33.9887 15.4481 33.9173 15.3195C33.8458 15.1909 33.7313 15.0916 33.5939 15.0391C33.5678 15.0375 33.5417 15.0375 33.5157 15.0391C33.4781 15.0223 33.4388 15.0092 33.3985 15.0001C33.3855 14.9997 33.3725 14.9997 33.3595 15.0001H21.9923H15.7813H10.6251ZM12.8126 16.2891H31.172L21.9923 22.0313L12.8126 16.2891ZM11.2501 16.7579L21.6798 23.2813C21.7793 23.3437 21.8944 23.3768 22.0118 23.3768C22.1293 23.3768 22.2443 23.3437 22.3438 23.2813L32.7345 16.7579V22.3048C32.0432 22.4424 31.435 22.8079 30.9376 23.2813C30.3062 22.6778 29.5354 22.2657 28.5939 22.2657C27.8686 22.2657 27.164 22.473 26.6017 22.8516C26.4146 22.9774 26.2533 23.1233 26.0939 23.2813C25.4537 23.9157 25.0398 24.7775 25.0392 25.7423C25.0375 25.9213 25.0603 26.118 25.0782 26.2891C25.2005 27.4563 25.7561 28.4204 26.4845 29.2579H11.2501V16.7579ZM28.5939 23.5157C29.3697 23.5157 30.0187 23.9085 30.4298 24.4923C30.4877 24.5729 30.5639 24.6386 30.6522 24.6839C30.7405 24.7292 30.8383 24.7529 30.9376 24.7529C31.0369 24.7529 31.1347 24.7292 31.223 24.6839C31.3113 24.6386 31.3875 24.5729 31.4454 24.4923C31.8571 23.9128 32.5523 23.5157 33.3204 23.5157C34.5757 23.5157 35.5377 24.4984 35.547 25.7423C35.4814 26.7364 34.8674 27.7487 33.9064 28.7501C33.0484 29.6441 31.9571 30.4936 30.9376 31.3282C30.1082 30.6964 29.207 30.0694 28.4376 29.4141C28.1732 29.1869 27.9219 28.9446 27.6954 28.711C27.625 28.6385 27.5661 28.5505 27.5001 28.4766C27.3319 28.2894 27.1681 28.1256 27.0314 27.9298C26.9548 27.8198 26.8623 27.6914 26.797 27.5782C26.7617 27.5169 26.7507 27.4448 26.7189 27.3829C26.6079 27.1656 26.5106 26.9519 26.4454 26.7188C26.4305 26.6663 26.4187 26.6162 26.4064 26.5626C26.3482 26.3074 26.3256 26.0608 26.3282 25.7813C26.3286 25.7683 26.3286 25.7553 26.3282 25.7423C26.3282 25.588 26.3377 25.4579 26.3673 25.3126C26.3973 25.1664 26.4275 25.0171 26.4845 24.8829C26.5416 24.7488 26.5987 24.6115 26.6798 24.4923C26.761 24.3735 26.89 24.2813 26.9923 24.1798C27.1979 23.9758 27.423 23.8251 27.6954 23.711C27.9678 23.5973 28.2786 23.5157 28.5939 23.5157Z" fill="white"/>
<defs>
<linearGradient id="paint0_linear_908_201" x1="2.93119" y1="0.597083" x2="42.024" y2="43.6734" gradientUnits="userSpaceOnUse">
<stop stop-color="#4E2B7D"/>
<stop offset="1" stop-color="#4FD3C4"/>
</linearGradient>
</defs>
</svg>
