<svg width="17" height="14" viewBox="0 0 17 14" fill="none" xmlns="http://www.w3.org/2000/svg">
<path fill-rule="evenodd" clip-rule="evenodd" d="M8.07266 8.54511C8.30867 8.77173 8.68945 8.77353 8.92734 8.54511L16.5727 1.20396C16.8087 0.977335 17 1.08516 17 1.45518V12.9384C17 13.3038 16.7597 13.6 16.4584 13.6H0.5416C0.242483 13.6 0 13.3085 0 12.9384V1.45518C0 1.08981 0.189452 0.975535 0.427341 1.20396L8.07266 8.54511ZM15.5389 0C15.8368 0 15.8872 0.183517 15.6546 0.406825L8.78325 7.00483C8.62681 7.15504 8.37479 7.15658 8.21675 7.00483L1.34537 0.406825C1.11138 0.182142 1.1659 0 1.46112 0H15.5389Z" fill="white"/>
</svg>
