<svg width="462" height="340" viewBox="0 0 462 340" fill="none" xmlns="http://www.w3.org/2000/svg">
<path d="M36.846 73.6921C57.1955 73.6921 73.6921 57.1955 73.6921 36.846C73.6921 16.4965 57.1955 0 36.846 0C16.4965 0 0 16.4965 0 36.846C0 57.1955 16.4965 73.6921 36.846 73.6921Z" fill="#4E2B7D"/>
<path d="M219.043 340C319.809 340 401.495 332.833 401.495 323.991C401.495 315.15 319.809 307.982 219.043 307.982C118.278 307.982 36.592 315.15 36.592 323.991C36.592 332.833 118.278 340 219.043 340Z" fill="#3F3D56"/>
<path d="M280.284 313.064H278.759C278.759 261.872 287.977 213.76 304.716 177.59C321.54 141.233 343.998 121.211 367.952 121.211V122.735C319.612 122.735 280.284 208.117 280.284 313.064Z" fill="#3F3D56"/>
<path d="M400.987 76.4872C400.987 88.4163 395.753 103.677 389.297 103.677C382.842 103.677 377.608 88.4163 377.608 76.4872C377.608 64.5582 382.842 60.4783 389.297 60.4783C395.753 60.4783 400.987 64.5582 400.987 76.4872Z" fill="#E6E6E6"/>
<path d="M446.861 127.376C435.062 129.131 419.197 126.201 418.247 119.815C417.297 113.43 431.622 106.008 443.421 104.252C455.22 102.497 460.026 107.073 460.976 113.458C461.926 119.844 458.66 125.62 446.861 127.376Z" fill="#E6E6E6"/>
<path d="M394.572 172.757C390.352 161.599 389.849 145.474 395.888 143.19C401.926 140.907 412.219 153.33 416.439 164.487C420.658 175.645 417.206 181.313 411.168 183.596C405.129 185.88 398.791 183.915 394.572 172.757Z" fill="#E6E6E6"/>
<path d="M394.38 136.711C402.519 136.711 409.118 130.113 409.118 121.973C409.118 113.833 402.519 107.235 394.38 107.235C386.24 107.235 379.641 113.833 379.641 121.973C379.641 130.113 386.24 136.711 394.38 136.711Z" fill="#4E2B7D"/>
<path d="M195.411 318.655H193.886C193.886 213.707 154.559 128.326 106.218 128.326V126.801C130.172 126.801 152.63 146.824 169.455 183.18C186.193 219.35 195.411 267.463 195.411 318.655Z" fill="#3F3D56"/>
<path d="M73.1838 82.0777C73.1838 94.0067 78.4172 109.268 84.8729 109.268C91.3286 109.268 96.562 94.0067 96.562 82.0777C96.562 70.1487 91.3286 66.0687 84.8729 66.0687C78.4172 66.0687 73.1838 70.1487 73.1838 82.0777Z" fill="#E6E6E6"/>
<path d="M27.3094 132.966C39.1085 134.722 54.9733 131.791 55.9233 125.406C56.8734 119.02 42.5489 111.598 30.7497 109.843C18.9506 108.087 14.1449 112.663 13.1949 119.049C12.2448 125.434 15.5102 131.211 27.3094 132.966Z" fill="#E6E6E6"/>
<path d="M79.5987 178.347C83.8182 167.189 84.3212 151.064 78.2828 148.781C72.2444 146.497 61.9514 158.92 57.7319 170.078C53.5123 181.236 56.9643 186.903 63.0026 189.187C69.041 191.47 75.3792 189.505 79.5987 178.347Z" fill="#E6E6E6"/>
<path d="M79.7907 142.302C87.9305 142.302 94.5291 135.703 94.5291 127.563C94.5291 119.424 87.9305 112.825 79.7907 112.825C71.6509 112.825 65.0522 119.424 65.0522 127.563C65.0522 135.703 71.6509 142.302 79.7907 142.302Z" fill="#4E2B7D"/>
<path d="M93.5127 315.605V286.129C93.5127 286.129 105.202 296.801 93.5127 318.146" fill="#3F3D56"/>
<path d="M93.8985 314.841L102.182 286.552C102.182 286.552 110.401 300.079 93.1844 317.28" fill="#3F3D56"/>
<path d="M298.834 308.999V279.522C298.834 279.522 310.523 290.194 298.834 311.54" fill="#3F3D56"/>
<path d="M299.22 308.234L307.503 279.945C307.503 279.945 315.722 293.472 298.506 310.673" fill="#3F3D56"/>
<path d="M255.127 310.523V281.046C255.127 281.046 243.438 291.719 255.127 313.064" fill="#3F3D56"/>
<path d="M254.741 309.759L246.458 281.47C246.458 281.47 238.239 294.997 255.455 312.197" fill="#3F3D56"/>
<path d="M217.603 37.1001H217.603C223.391 37.1001 228.941 39.3991 233.033 43.4913C237.125 47.5836 239.424 53.1339 239.424 58.9212V80.2924H195.782V58.9212C195.782 56.0556 196.347 53.2181 197.443 50.5706C198.54 47.9232 200.147 45.5176 202.174 43.4913C204.2 41.4651 206.605 39.8577 209.253 38.7611C211.9 37.6645 214.738 37.1001 217.603 37.1001Z" fill="#2F2E41"/>
<path d="M239.2 82.767C231.196 88.4527 220.534 90.6456 209.055 91.7654C216.964 85.3483 213.864 78.2607 209.055 71.0691L226.602 69.2694C227.109 75.798 232.172 79.8225 239.2 82.767Z" fill="#FFB8B8"/>
<path d="M242.799 150.705L191.058 143.506C195.252 135.605 198.069 127.971 197.08 121.078C196.555 117.633 196.599 114.125 197.21 110.694L197.54 108.938C198.225 105.559 199.532 102.337 201.394 99.4358C203.472 96.0876 202.755 91.0568 201.856 85.9164L214.004 84.1167C220.707 87.5216 228.232 85.253 236.05 80.9673L250.448 82.317C249.472 107.973 247.327 131.505 242.799 150.705Z" fill="#E6E6E6"/>
<path d="M285.991 305.027L276.093 306.827L212.204 195.697L187.009 306.827L178.01 306.377C177.814 243.399 174.982 174.251 190.212 147.395C195.926 133.835 204.669 120.85 201.406 107.513C214.222 111.247 227.122 110.98 240.099 107.063C239.49 123.066 240.067 138.061 242.349 151.605L285.991 305.027Z" fill="#4E2B7D"/>
<path d="M283.172 335.172C281.012 335.172 278.911 334.46 277.196 333.145C275.481 331.831 274.247 329.988 273.686 327.902L272.808 324.642C272.6 323.87 272.538 323.066 272.624 322.271L274.293 306.827C277.477 302.88 282.107 301.928 288.691 305.027L292.759 323.201C293.081 324.638 293.076 326.129 292.744 327.563C292.411 328.998 291.761 330.339 290.841 331.489C289.92 332.638 288.753 333.566 287.426 334.203C286.098 334.841 284.645 335.172 283.172 335.172Z" fill="#2F2E41"/>
<path d="M183.74 335.172C181.58 335.172 179.479 334.46 177.764 333.145C176.049 331.831 174.815 329.988 174.254 327.902L173.376 324.642C173.168 323.87 173.106 323.066 173.191 322.271L174.861 306.827C178.045 302.88 182.674 301.928 189.259 305.027L193.327 323.201C193.649 324.638 193.644 326.129 193.311 327.563C192.979 328.998 192.329 330.339 191.409 331.489C190.488 332.638 189.321 333.566 187.994 334.203C186.666 334.841 185.213 335.172 183.74 335.172Z" fill="#2F2E41"/>
<path d="M215.354 76.4681C223.554 76.4681 230.201 69.8207 230.201 61.6208C230.201 53.4208 223.554 46.7734 215.354 46.7734C207.154 46.7734 200.506 53.4208 200.506 61.6208C200.506 69.8207 207.154 76.4681 215.354 76.4681Z" fill="#FFB8B8"/>
<path d="M203.881 111.787C204.626 111.787 205.231 111.182 205.231 110.437C205.231 109.692 204.626 109.087 203.881 109.087C203.135 109.087 202.531 109.692 202.531 110.437C202.531 111.182 203.135 111.787 203.881 111.787Z" fill="#E6E6E6"/>
<path d="M238.075 111.787C238.82 111.787 239.424 111.182 239.424 110.437C239.424 109.692 238.82 109.087 238.075 109.087C237.329 109.087 236.725 109.692 236.725 110.437C236.725 111.182 237.329 111.787 238.075 111.787Z" fill="#E6E6E6"/>
<path d="M225.027 59.596L201.631 59.1818V43.8488H229.976L225.027 59.596Z" fill="#2F2E41"/>
<path d="M234.475 79.8425H224.127C227.952 70.7047 227.615 61.0658 224.127 51.0476H234.475V79.8425Z" fill="#2F2E41"/>
<path d="M247.298 165.102L241.168 172.289C240.381 173.212 239.385 173.934 238.262 174.396C237.14 174.857 235.924 175.044 234.715 174.941C233.506 174.838 232.339 174.448 231.311 173.804C230.282 173.16 229.423 172.28 228.802 171.237C228.247 170.303 227.898 169.261 227.777 168.181C227.657 167.101 227.769 166.008 228.105 164.974C228.442 163.941 228.995 162.992 229.728 162.189C230.461 161.387 231.357 160.751 232.356 160.323L243.249 155.654L256.296 137.207L249.098 105.263L261.696 101.214L268.894 141.707L247.298 165.102Z" fill="#FFB8B8"/>
<path d="M200.056 168.468L206.186 175.655C206.974 176.578 207.97 177.3 209.092 177.761C210.215 178.222 211.431 178.409 212.64 178.306C213.849 178.204 215.016 177.814 216.044 177.17C217.072 176.526 217.932 175.646 218.552 174.603C219.107 173.669 219.457 172.627 219.577 171.547C219.697 170.467 219.586 169.373 219.249 168.34C218.913 167.307 218.36 166.357 217.627 165.555C216.894 164.753 215.998 164.116 214.999 163.688L204.106 159.02L191.058 140.573L198.257 108.629L185.659 104.579L178.46 145.072L200.056 168.468Z" fill="#FFB8B8"/>
<path d="M263.495 103.013C260.671 102.929 257.86 103.426 255.236 104.472C252.612 105.518 250.23 107.092 248.239 109.096L243.74 82.1007L249.181 82.0369C251.4 82.119 253.54 82.8801 255.313 84.2173C257.086 85.5545 258.405 87.4034 259.093 89.5144L263.495 103.013Z" fill="#E6E6E6"/>
<path d="M183.859 106.379C186.683 106.295 189.494 106.792 192.119 107.838C194.743 108.884 197.125 110.458 199.116 112.462C204.323 104.564 205.078 95.3442 203.615 85.4665L198.173 85.4027C195.955 85.4849 193.814 86.246 192.042 87.5831C190.269 88.9203 188.95 90.7692 188.261 92.8802L183.859 106.379Z" fill="#E6E6E6"/>
<path d="M237.85 109.312H238.345L241.333 81.571C241.341 81.4949 241.333 81.4179 241.31 81.345C241.286 81.2722 241.248 81.2051 241.196 81.1482C241.145 81.0912 241.083 81.0457 241.013 81.0145C240.943 80.9834 240.867 80.9673 240.79 80.9673H238.395C238.251 80.9674 238.112 81.025 238.01 81.1273C237.907 81.2296 237.85 81.3683 237.85 81.513V109.312Z" fill="#4E2B7D"/>
<path d="M203.206 110.662H203.706L206.693 85.2692C206.7 85.2093 206.695 85.1485 206.677 85.0909C206.658 85.0333 206.628 84.9802 206.588 84.9351C206.548 84.89 206.499 84.8539 206.444 84.8291C206.389 84.8044 206.329 84.7916 206.269 84.7916H203.634C203.521 84.7918 203.412 84.8369 203.332 84.9171C203.251 84.9973 203.206 85.1061 203.206 85.2196V110.662Z" fill="#4E2B7D"/>
<path d="M50.7436 34.9759C50.7436 27.1679 44.4142 20.8385 36.6062 20.8385C28.7981 20.8385 22.4427 27.2175 22.4688 35.0256C22.4824 38.9029 24.0567 42.4115 26.5956 44.9579C28.5722 46.9394 30.0186 49.3877 30.7498 52.0893L31.8896 56.3056H41.1564L42.2366 52.3128C42.9827 49.5528 44.4776 47.0611 46.5174 45.056C49.1259 42.4922 50.7436 38.9228 50.7436 34.9759Z" stroke="white" stroke-width="2" stroke-miterlimit="10"/>
<path d="M38.9189 61.2431H34.052C32.6727 61.2431 31.4932 60.2983 31.415 59.0977L31.004 54.468L42.0264 54.4022L41.5559 59.0977C41.4777 60.2983 40.2982 61.2431 38.9189 61.2431Z" fill="white"/>
<path d="M40.712 56.4223C37.854 56.5439 34.9848 56.3974 32.1267 56.5241C31.8735 56.5352 31.8921 56.9052 32.1404 56.9139C35.0009 57.0095 37.8688 56.832 40.7294 56.9226C41.0522 56.9338 41.0373 56.4086 40.712 56.4223Z" fill="#E6E6E6"/>
<path d="M40.712 57.6638C37.854 57.7855 34.9848 57.639 32.1267 57.7656C31.8735 57.7768 31.8921 58.1468 32.1404 58.1555C35.0009 58.2511 37.8688 58.0735 40.7294 58.1642C41.0522 58.1753 41.0373 57.6502 40.712 57.6638Z" fill="#E6E6E6"/>
<path d="M37.7594 13.65C37.7594 14.5613 37.2752 17.8365 36.678 17.8365C36.0808 17.8365 35.5966 14.5613 35.5966 13.65C35.5966 12.7387 36.0808 12 36.678 12C37.2752 12.0012 37.7594 12.74 37.7594 13.65Z" fill="white"/>
<path d="M51.24 18.6808C50.5485 19.2742 48.3807 21.7759 48.7706 22.2291C49.1604 22.6823 51.9601 20.9156 52.6504 20.3221C53.3419 19.7286 53.5853 18.8794 53.1967 18.4263C52.8068 17.9731 51.9315 18.0873 51.24 18.6808Z" fill="white"/>
<path d="M56.4943 33.2961C55.5905 33.4103 52.2806 33.3433 52.2048 32.7498C52.1291 32.1576 55.3174 31.2637 56.2212 31.1495C57.125 31.0353 57.9184 31.4226 57.9941 32.0148C58.0699 32.6083 57.3982 33.1819 56.4943 33.2961Z" fill="white"/>
<path d="M23.3512 17.5932C24.0688 18.1544 26.3483 20.5555 25.9796 21.0261C25.6108 21.4966 22.7342 19.859 22.0166 19.2966C21.2989 18.7355 21.0171 17.8987 21.3846 17.4281C21.7546 16.9576 22.6348 17.0308 23.3512 17.5932Z" fill="white"/>
<path d="M16.5056 30.9547C17.4094 31.0689 20.7194 31.0019 20.7951 30.4084C20.8709 29.8162 17.6826 28.9223 16.7787 28.8081C15.8749 28.6938 15.0816 29.0812 15.0058 29.6734C14.9301 30.2669 15.6018 30.8405 16.5056 30.9547Z" fill="white"/>
<path d="M42.7082 42.1744C42.2538 41.8417 41.9012 41.4071 41.643 40.918C42.1558 40.2848 42.3817 39.4343 42.4761 38.6422C42.5332 38.158 42.5493 37.6738 42.558 37.1872C42.5655 36.7178 42.5034 36.3193 42.1061 36.0276C41.7523 35.7668 41.2792 36.0027 41.0073 36.2548C40.6932 36.5465 40.5418 37.0233 40.4213 37.4206C40.1767 38.2238 40.1817 39.0842 40.3344 39.9024C40.3878 40.188 40.4685 40.4673 40.5703 40.7392C40.3692 40.8956 40.142 41.021 39.8912 41.1005C39.119 41.3476 38.5329 40.9031 38.1754 40.2438C38.117 40.1358 38.0612 40.0203 38.009 39.9012C38.0698 39.7385 38.1282 39.5759 38.1816 39.4145C38.4448 38.6323 38.5901 37.8129 38.6559 36.991C38.7105 36.3106 38.7291 35.4962 38.0748 35.0927C37.8638 34.9636 37.6279 35.0604 37.495 35.2441C36.5378 36.5713 36.5912 38.3331 37.1114 39.8391C36.9438 40.2389 36.7476 40.6275 36.5291 41.0036C36.2895 41.4171 35.8314 42.054 35.2751 41.9733C34.7574 41.8976 34.344 41.2482 34.087 40.8472C33.8983 40.553 33.7505 40.2389 33.6338 39.9111C33.6996 39.7385 33.7605 39.5635 33.8163 39.3859C34.0373 38.6907 34.1602 37.9656 34.2186 37.2393C34.267 36.6334 34.2869 35.7805 33.6227 35.4912C33.4302 35.4068 33.1447 35.4155 33.0429 35.6439C32.4606 36.9401 32.3488 38.3616 32.7163 39.7348C32.7287 39.7807 32.7436 39.8279 32.7573 39.8738C32.355 40.8981 31.743 41.8454 31.0005 42.6512C30.6665 43.0125 31.1954 43.5463 31.5418 43.1925C32.2036 42.5158 32.7548 41.7486 33.1856 40.9155C33.3135 41.1551 33.4575 41.386 33.6152 41.6046C34.0485 42.2042 34.5911 42.7654 35.3707 42.8076C36.0983 42.8473 36.6893 42.2353 37.0841 41.7026C37.2728 41.4469 37.4392 41.1688 37.5857 40.8795C37.942 41.4469 38.456 41.8976 39.1562 41.9956C39.8006 42.0863 40.4251 41.8851 40.9527 41.5325C41.2619 42.059 41.6616 42.5332 42.1284 42.9231C42.6598 43.3713 43.2682 42.5829 42.7082 42.1744ZM37.8389 36.2783C37.8687 36.6173 37.7905 37.0357 37.7719 37.2405C37.7371 37.6155 37.6713 37.9867 37.5857 38.3542C37.4963 37.6316 37.5559 36.8917 37.8389 36.2783ZM41.1414 38.4088C41.1675 38.0575 41.2606 37.7111 41.3786 37.3796C41.4319 37.2294 41.499 37.0878 41.5847 36.9537C41.5909 36.9426 41.6207 36.9053 41.6517 36.8718C41.6554 36.8954 41.6654 36.9277 41.6678 36.9748C41.7125 37.8328 41.6418 38.7577 41.3748 39.5759C41.3413 39.6777 41.3016 39.7758 41.2569 39.8714C41.1439 39.3896 41.1054 38.8918 41.1414 38.4088Z" fill="white"/>
<path d="M43.5125 40.0948C42.009 44.6823 40.4273 49.2474 38.7276 53.7666C38.524 54.3079 39.3571 54.6394 39.5595 54.0981C41.2529 49.5727 42.8272 45.0051 44.2376 40.3828C44.3828 39.9073 43.669 39.6143 43.5125 40.0948Z" fill="white"/>
<path d="M29.8398 39.8043C31.0391 44.4812 32.1602 49.1804 33.1572 53.9045C33.2764 54.4706 34.1578 54.3018 34.0374 53.7369C33.0318 49.0103 31.9032 44.3136 30.607 39.6578C30.473 39.1786 29.7144 39.3151 29.8398 39.8043Z" fill="white"/>
</svg>
