<svg width="45" height="45" viewBox="0 0 45 45" fill="none" xmlns="http://www.w3.org/2000/svg">
<path d="M22.5 45C34.9264 45 45 34.9264 45 22.5C45 10.0736 34.9264 0 22.5 0C10.0736 0 0 10.0736 0 22.5C0 34.9264 10.0736 45 22.5 45Z" fill="white"/>
<path d="M31.6694 21.4401C31.6694 16.4134 27.5946 12.3386 22.5679 12.3386C17.5411 12.3386 13.4496 16.4454 13.4664 21.4721C13.4752 23.9683 14.4887 26.2271 16.1232 27.8664C17.3957 29.1421 18.3268 30.7183 18.7976 32.4575L19.5314 35.1719H25.4973L26.1926 32.6014C26.673 30.8246 27.6354 29.2204 28.9486 27.9296C30.6279 26.279 31.6694 23.9811 31.6694 21.4401Z" stroke="#4F2A7D" stroke-width="2" stroke-miterlimit="10"/>
<path d="M24.0568 38.3506H20.9236C20.0356 38.3506 19.2763 37.7424 19.2259 36.9694L18.9614 33.9889L26.0575 33.9465L25.7545 36.9694C25.7042 37.7424 24.9448 38.3506 24.0568 38.3506Z" fill="#4F2A7D"/>
<path d="M25.2112 35.2471C23.3712 35.3254 21.524 35.2311 19.6841 35.3127C19.521 35.3198 19.533 35.558 19.6929 35.5636C21.5344 35.6252 23.3808 35.5109 25.2224 35.5692C25.4302 35.5764 25.4206 35.2383 25.2112 35.2471Z" fill="#B983FF"/>
<path d="M25.2112 36.0463C23.3712 36.1246 21.524 36.0303 19.6841 36.1118C19.521 36.119 19.533 36.3572 19.6929 36.3628C21.5344 36.4244 23.3808 36.3101 25.2224 36.3684C25.4302 36.3756 25.4206 36.0375 25.2112 36.0463Z" fill="#B983FF"/>
<path d="M23.3104 7.71069C23.3104 8.29737 22.9987 10.4059 22.6142 10.4059C22.2298 10.4059 21.918 8.29737 21.918 7.71069C21.918 7.12402 22.2298 6.64844 22.6142 6.64844C22.9987 6.64924 23.3104 7.12481 23.3104 7.71069Z" fill="#4F2A7D"/>
<path d="M31.9891 10.9495C31.5439 11.3315 30.1484 12.9421 30.3993 13.2338C30.6503 13.5256 32.4527 12.3882 32.8971 12.0061C33.3423 11.6241 33.499 11.0773 33.2488 10.7856C32.9978 10.4939 32.4343 10.5674 31.9891 10.9495Z" fill="#4F2A7D"/>
<path d="M35.3717 20.3587C34.7898 20.4322 32.6589 20.3891 32.6101 20.007C32.5614 19.6257 34.6139 19.0503 35.1958 18.9767C35.7777 18.9032 36.2884 19.1526 36.3372 19.5338C36.386 19.9159 35.9535 20.2852 35.3717 20.3587Z" fill="#4F2A7D"/>
<path d="M14.0347 10.2493C14.4966 10.6106 15.9641 12.1564 15.7267 12.4594C15.4894 12.7623 13.6374 11.708 13.1754 11.346C12.7134 10.9847 12.532 10.446 12.7686 10.143C13.0068 9.84009 13.5735 9.88725 14.0347 10.2493Z" fill="#4F2A7D"/>
<path d="M9.62737 18.8512C10.2093 18.9248 12.3402 18.8816 12.3889 18.4996C12.4377 18.1183 10.3851 17.5428 9.80322 17.4693C9.22133 17.3957 8.71059 17.6451 8.66183 18.0264C8.61307 18.4084 9.04549 18.7777 9.62737 18.8512Z" fill="#4F2A7D"/>
<path d="M26.4964 26.0744C26.2038 25.8602 25.9768 25.5804 25.8106 25.2655C26.1407 24.8579 26.2861 24.3103 26.3469 23.8004C26.3837 23.4887 26.394 23.1769 26.3996 22.8636C26.4044 22.5615 26.3645 22.3049 26.1087 22.1171C25.8809 21.9492 25.5764 22.1011 25.4013 22.2634C25.1991 22.4512 25.1016 22.7581 25.0241 23.0139C24.8666 23.531 24.8698 24.0849 24.9681 24.6117C25.0025 24.7955 25.0544 24.9753 25.12 25.1504C24.9905 25.2511 24.8442 25.3318 24.6828 25.383C24.1856 25.542 23.8083 25.2559 23.5782 24.8315C23.5406 24.7619 23.5046 24.6876 23.471 24.6109C23.5102 24.5062 23.5478 24.4015 23.5821 24.2975C23.7516 23.794 23.8451 23.2665 23.8875 22.7373C23.9226 22.2993 23.9346 21.775 23.5134 21.5152C23.3775 21.4321 23.2257 21.4944 23.1401 21.6127C22.5239 22.4672 22.5583 23.6014 22.8932 24.5709C22.7853 24.8283 22.659 25.0785 22.5183 25.3206C22.364 25.5868 22.0691 25.9968 21.711 25.9449C21.3777 25.8961 21.1115 25.4781 20.9461 25.2199C20.8246 25.0305 20.7295 24.8283 20.6543 24.6173C20.6967 24.5062 20.7359 24.3935 20.7718 24.2792C20.9141 23.8316 20.9932 23.3648 21.0308 22.8972C21.062 22.5071 21.0748 21.958 20.6472 21.7718C20.5233 21.7174 20.3394 21.723 20.2739 21.8701C19.899 22.7046 19.8271 23.6198 20.0637 24.5038C20.0717 24.5333 20.0813 24.5637 20.0901 24.5933C19.8311 25.2527 19.437 25.8626 18.9591 26.3813C18.744 26.6139 19.0845 26.9576 19.3075 26.7298C19.7336 26.2942 20.0885 25.8002 20.3658 25.2639C20.4481 25.4182 20.5408 25.5668 20.6424 25.7075C20.9213 26.0936 21.2706 26.4548 21.7726 26.482C22.2409 26.5076 22.6214 26.1135 22.8756 25.7706C22.9971 25.606 23.1042 25.4269 23.1985 25.2407C23.4279 25.606 23.7588 25.8961 24.2096 25.9593C24.6244 26.0176 25.0265 25.8881 25.3662 25.6611C25.5652 26 25.8226 26.3054 26.1231 26.5563C26.4652 26.8449 26.8568 26.3373 26.4964 26.0744ZM23.3615 22.2785C23.3807 22.4967 23.3304 22.7661 23.3184 22.898C23.296 23.1394 23.2536 23.3784 23.1985 23.615C23.1409 23.1498 23.1793 22.6734 23.3615 22.2785ZM25.4877 23.6501C25.5044 23.4239 25.5644 23.2009 25.6403 22.9875C25.6747 22.8908 25.7178 22.7997 25.773 22.7134C25.777 22.7062 25.7962 22.6822 25.8162 22.6606C25.8186 22.6758 25.825 22.6966 25.8265 22.7269C25.8553 23.2793 25.8098 23.8747 25.6379 24.4015C25.6163 24.467 25.5908 24.5301 25.562 24.5917C25.4892 24.2816 25.4645 23.961 25.4877 23.6501Z" fill="#4F2A7D"/>
<path d="M27.0143 24.7355C26.0463 27.6889 25.028 30.6279 23.9338 33.5373C23.8027 33.8858 24.339 34.0992 24.4693 33.7507C25.5596 30.8373 26.5731 27.8967 27.481 24.9209C27.5746 24.6148 27.115 24.4262 27.0143 24.7355Z" fill="#4F2A7D"/>
<path d="M18.2118 24.5486C18.9839 27.5595 19.7057 30.5848 20.3475 33.6261C20.4242 33.9906 20.9917 33.8819 20.9142 33.5182C20.2668 30.4753 19.5402 27.4516 18.7058 24.4543C18.6194 24.1457 18.1311 24.2337 18.2118 24.5486Z" fill="#4F2A7D"/>
</svg>
