<svg width="45" height="45" viewBox="0 0 45 45" fill="none" xmlns="http://www.w3.org/2000/svg">
<path d="M22.5 45C34.9264 45 45 34.9264 45 22.5C45 10.0736 34.9264 0 22.5 0C10.0736 0 0 10.0736 0 22.5C0 34.9264 10.0736 45 22.5 45Z" fill="#4F2A7D"/>
<path d="M31.6695 21.4401C31.6695 16.4134 27.5947 12.3386 22.568 12.3386C17.5413 12.3386 13.4497 16.4454 13.4665 21.4721C13.4753 23.9683 14.4888 26.2271 16.1233 27.8664C17.3958 29.1421 18.327 30.7183 18.7977 32.4575L19.5315 35.1719H25.4974L26.1928 32.6014C26.6731 30.8246 27.6355 29.2204 28.9487 27.9296C30.628 26.279 31.6695 23.9811 31.6695 21.4401Z" stroke="white" stroke-width="2" stroke-miterlimit="10"/>
<path d="M24.0569 38.3506H20.9237C20.0357 38.3506 19.2763 37.7424 19.226 36.9694L18.9614 33.9889L26.0575 33.9465L25.7546 36.9694C25.7042 37.7424 24.9449 38.3506 24.0569 38.3506Z" fill="white"/>
<path d="M25.2113 35.247C23.3713 35.3253 21.5242 35.231 19.6842 35.3125C19.5211 35.3197 19.5331 35.5579 19.693 35.5635C21.5346 35.6251 23.3809 35.5108 25.2225 35.5691C25.4303 35.5763 25.4207 35.2382 25.2113 35.247Z" fill="#9E9E9E"/>
<path d="M25.2113 36.0463C23.3713 36.1246 21.5242 36.0303 19.6842 36.1118C19.5211 36.119 19.5331 36.3572 19.693 36.3628C21.5346 36.4244 23.3809 36.3101 25.2225 36.3684C25.4303 36.3756 25.4207 36.0375 25.2113 36.0463Z" fill="#9E9E9E"/>
<path d="M23.3105 7.71069C23.3105 8.29737 22.9987 10.4059 22.6143 10.4059C22.2298 10.4059 21.9181 8.29737 21.9181 7.71069C21.9181 7.12402 22.2298 6.64844 22.6143 6.64844C22.9987 6.64924 23.3105 7.12481 23.3105 7.71069Z" fill="white"/>
<path d="M31.9891 10.9493C31.5439 11.3314 30.1484 12.942 30.3993 13.2337C30.6503 13.5254 32.4527 12.3881 32.8971 12.006C33.3423 11.6239 33.499 11.0772 33.2488 10.7855C32.9978 10.4937 32.4343 10.5673 31.9891 10.9493Z" fill="white"/>
<path d="M35.3718 20.3587C34.7899 20.4322 32.659 20.3891 32.6102 20.007C32.5615 19.6257 34.614 19.0503 35.1959 18.9767C35.7778 18.9032 36.2886 19.1526 36.3373 19.5338C36.3861 19.9159 35.9537 20.2852 35.3718 20.3587Z" fill="white"/>
<path d="M14.0347 10.2492C14.4966 10.6105 15.9641 12.1563 15.7267 12.4592C15.4894 12.7622 13.6374 11.7079 13.1754 11.3458C12.7134 10.9846 12.532 10.4458 12.7686 10.1429C13.0068 9.83997 13.5735 9.88713 14.0347 10.2492Z" fill="white"/>
<path d="M9.62749 18.8511C10.2094 18.9247 12.3403 18.8815 12.389 18.4994C12.4378 18.1182 10.3852 17.5427 9.80334 17.4692C9.22146 17.3956 8.71071 17.645 8.66195 18.0263C8.6132 18.4083 9.04561 18.7776 9.62749 18.8511Z" fill="white"/>
<path d="M26.4965 26.0745C26.2039 25.8603 25.9769 25.5805 25.8107 25.2656C26.1408 24.858 26.2863 24.3105 26.347 23.8005C26.3838 23.4888 26.3942 23.1771 26.3998 22.8637C26.4046 22.5616 26.3646 22.305 26.1088 22.1172C25.881 21.9494 25.5765 22.1012 25.4015 22.2635C25.1992 22.4513 25.1017 22.7582 25.0242 23.014C24.8667 23.5312 24.8699 24.0851 24.9682 24.6118C25.0026 24.7956 25.0546 24.9755 25.1201 25.1505C24.9906 25.2512 24.8443 25.332 24.6829 25.3831C24.1857 25.5422 23.8085 25.256 23.5783 24.8316C23.5407 24.7621 23.5047 24.6877 23.4712 24.611C23.5103 24.5063 23.5479 24.4016 23.5823 24.2977C23.7517 23.7941 23.8452 23.2666 23.8876 22.7375C23.9228 22.2994 23.9348 21.7751 23.5135 21.5153C23.3776 21.4322 23.2258 21.4946 23.1403 21.6129C22.524 22.4673 22.5584 23.6015 22.8933 24.571C22.7854 24.8284 22.6591 25.0786 22.5184 25.3208C22.3642 25.5869 22.0692 25.997 21.7111 25.945C21.3778 25.8962 21.1117 25.4782 20.9462 25.2201C20.8247 25.0306 20.7296 24.8284 20.6545 24.6174C20.6968 24.5063 20.736 24.3936 20.772 24.2793C20.9142 23.8317 20.9934 23.3649 21.0309 22.8973C21.0621 22.5073 21.0749 21.9582 20.6473 21.7719C20.5234 21.7176 20.3395 21.7232 20.274 21.8702C19.8991 22.7047 19.8272 23.6199 20.0638 24.5039C20.0718 24.5335 20.0814 24.5638 20.0902 24.5934C19.8312 25.2528 19.4372 25.8627 18.9592 26.3814C18.7442 26.614 19.0847 26.9577 19.3077 26.7299C19.7337 26.2943 20.0886 25.8003 20.3659 25.264C20.4483 25.4183 20.541 25.5669 20.6425 25.7076C20.9214 26.0937 21.2707 26.455 21.7727 26.4821C22.2411 26.5077 22.6215 26.1137 22.8757 25.7708C22.9972 25.6061 23.1043 25.4271 23.1986 25.2408C23.428 25.6061 23.7589 25.8963 24.2097 25.9594C24.6245 26.0177 25.0266 25.8883 25.3663 25.6613C25.5653 26.0002 25.8227 26.3055 26.1232 26.5565C26.4653 26.845 26.857 26.3375 26.4965 26.0745ZM23.3617 22.2787C23.3808 22.4969 23.3305 22.7662 23.3185 22.8981C23.2961 23.1395 23.2538 23.3785 23.1986 23.6151C23.1411 23.1499 23.1794 22.6735 23.3617 22.2787ZM25.4878 23.6502C25.5046 23.424 25.5645 23.201 25.6404 22.9876C25.6748 22.8909 25.718 22.7998 25.7731 22.7135C25.7771 22.7063 25.7963 22.6823 25.8163 22.6607C25.8187 22.6759 25.8251 22.6967 25.8267 22.7271C25.8554 23.2794 25.8099 23.8748 25.638 24.4016C25.6165 24.4671 25.5909 24.5303 25.5621 24.5918C25.4894 24.2817 25.4646 23.9612 25.4878 23.6502Z" fill="white"/>
<path d="M27.0143 24.7356C26.0463 27.689 25.028 30.628 23.9338 33.5374C23.8027 33.8859 24.339 34.0993 24.4693 33.7508C25.5596 30.8374 26.5731 27.8968 27.481 24.921C27.5746 24.6149 27.115 24.4263 27.0143 24.7356Z" fill="white"/>
<path d="M18.2119 24.5486C18.984 27.5595 19.7057 30.5848 20.3476 33.6261C20.4243 33.9906 20.9918 33.8819 20.9142 33.5182C20.2668 30.4753 19.5403 27.4516 18.7058 24.4543C18.6195 24.1457 18.1311 24.2337 18.2119 24.5486Z" fill="white"/>
</svg>
