<svg width="13" height="18" viewBox="0 0 13 18" fill="none" xmlns="http://www.w3.org/2000/svg">
<path d="M6.49839 0C2.90931 0 0 2.67571 0 5.97534C0 7.18675 0.504842 8.33623 0.760225 8.7775C2.47432 12.2715 6.49839 18 6.49839 18C6.49839 18 10.5225 12.2712 12.2369 8.77664C12.4916 8.33652 12.9563 7.18675 12.9971 5.97506C13.1069 2.67743 10.0872 0 6.49839 0ZM6.49995 8.4535C4.97732 8.4535 3.74281 7.31836 3.74281 5.91828C3.74281 4.51763 4.97732 3.38249 6.49995 3.38249C8.0229 3.38249 9.2574 4.51763 9.2574 5.91828C9.2574 7.31836 8.0229 8.4535 6.49995 8.4535Z" fill="white"/>
</svg>
