<svg width="50" height="50" viewBox="0 0 50 50" fill="none" xmlns="http://www.w3.org/2000/svg">
<path d="M24.1545 41.2672H26.3374C26.4782 41.2672 26.6189 41.1264 26.6189 40.9856V38.0982C26.6189 37.9574 26.6893 37.887 26.8301 37.8166C28.8018 37.6055 30.4217 36.9013 31.5481 35.7041C32.7454 34.5069 33.3792 32.9578 33.3792 30.9152C33.3792 28.8731 32.7454 27.3236 31.5481 26.1972C30.3509 25.0704 28.4495 24.0143 25.9143 23.0282C24.5764 22.4648 23.5903 21.9718 23.0977 21.4083C22.6046 20.8449 22.3231 20.1408 22.3231 19.2255C22.3231 18.3102 22.5343 17.5352 23.0273 16.9718C23.5203 16.4084 24.2245 16.1268 25.2102 16.1268C26.1254 16.1268 26.9004 16.4791 27.4638 17.2536C27.9569 17.8874 28.2384 18.8735 28.3088 20C28.3088 20.2111 28.4495 20.3522 28.661 20.3522H32.8161C33.0272 20.3522 33.2388 20.1411 33.2388 19.9296V19.8592C33.1684 17.817 32.605 16.1972 31.5485 14.9296C30.4217 13.5917 28.943 12.8171 27.0416 12.4648C26.9008 12.4648 26.7601 12.324 26.7601 12.1833V9.01431C26.7601 8.87354 26.6193 8.73278 26.4785 8.73278H24.366C24.2253 8.73278 24.0845 8.87354 24.0845 9.01431V12.1129C24.0845 12.2537 23.9437 12.3945 23.803 12.3945C21.8312 12.676 20.2817 13.3805 19.0849 14.507C17.8877 15.7042 17.2539 17.3237 17.2539 19.225C17.2539 21.2672 17.8877 22.887 19.0849 24.0139C20.2821 25.1407 22.1835 26.1968 24.7187 27.1125C25.9863 27.6055 26.9016 28.169 27.465 28.7324C28.0284 29.2958 28.2396 30.0703 28.2396 30.9861C28.2396 31.9014 27.958 32.6763 27.3946 33.2398C26.8312 33.8032 26.0567 34.0847 25.0003 34.0847C23.9438 34.0847 23.0285 33.7324 22.3243 33.0986C21.62 32.4648 21.2678 31.4787 21.2678 30.0704C21.2678 29.9297 21.1271 29.8593 21.0567 29.8593H16.6201C16.4794 29.8593 16.409 30 16.409 30.0704V30.7746C16.5498 32.8871 17.1836 34.507 18.4512 35.6338C19.7891 36.9014 21.4793 37.6055 23.5215 37.8875C23.6623 37.8875 23.7327 38.0283 23.7327 38.169V41.0565C23.8727 41.1969 24.0135 41.2673 24.1546 41.2673L24.1545 41.2672Z" fill="#4E2B7D"/>
<path d="M24.9993 2.74632C30.14 2.74632 34.929 4.43656 38.9427 7.60553H35.9145C35.14 7.60553 34.5062 8.23932 34.5062 9.01391C34.5062 9.78847 35.14 10.4223 35.9145 10.4223H42.4636C43.2382 10.4223 43.872 9.7885 43.872 9.01391L43.8724 2.46446C43.8724 1.6899 43.2386 1.05608 42.464 1.05608C41.6894 1.05608 41.0556 1.68988 41.0556 2.46446L41.126 5.91493C36.6187 2.11253 30.9147 0 24.9995 0C11.1964 0 0 11.1964 0 24.9996C0 25.7741 0.633793 26.4079 1.40838 26.4079C2.18294 26.4079 2.81676 25.7741 2.81676 24.9996C2.74638 12.7465 12.7465 2.74614 24.9995 2.74614L24.9993 2.74632Z" fill="#4E2B7D"/>
<path d="M48.5899 23.5916C47.8154 23.5916 47.1816 24.2253 47.1816 24.9999C47.1816 37.253 37.1812 47.2533 24.9281 47.2533C19.717 47.2533 14.7168 45.4223 10.7031 42.1126H13.7313C14.5058 42.1126 15.1396 41.4789 15.1396 40.7043C15.1396 39.9297 14.5059 39.2959 13.7313 39.2959H7.18219C6.40763 39.2959 5.7738 39.9297 5.7738 40.7043V47.2533C5.7738 48.0279 6.4076 48.6617 7.18219 48.6617C7.95674 48.6617 8.59056 48.0279 8.59056 47.2533V43.9436C13.0975 47.8871 18.9422 50 24.9289 50C38.732 50 49.9284 38.8027 49.9284 25.0005C49.9984 24.2256 49.3646 23.5917 48.5901 23.5917L48.5899 23.5916Z" fill="#4E2B7D"/>
</svg>
