<svg width="45" height="45" viewBox="0 0 45 45" fill="none" xmlns="http://www.w3.org/2000/svg">
<path d="M9.46875 0H35.4375C40.7812 0 45 4.21875 45 9.46875V35.4375C45 40.7812 40.7812 45 35.5312 45H9.46875C4.21875 45 0 40.7812 0 35.5312V9.46875C0 4.21875 4.21875 0 9.46875 0Z" fill="url(#paint0_linear_908_204)"/>
<path d="M23.2219 34.2656C22.8469 34.2656 22.5657 34.2656 22.1907 34.1719C19.9407 33.6094 17.9719 32.4844 16.3781 30.8906L12.5344 27.0469C10.9406 25.4531 9.81565 23.3906 9.25315 21.2344C8.87815 19.8281 9.3469 18.2344 10.3781 17.2031L12.1594 15.4219C12.7219 14.8594 13.5656 14.8594 14.1281 15.4219L16.1907 17.4844C16.6594 17.9531 16.7531 18.7031 16.3781 19.2656L14.9719 21.3281C14.5969 21.8906 14.6906 22.6406 15.1594 23.1094L20.3157 28.2656C20.7844 28.7344 21.5344 28.8281 22.0969 28.4531L24.1594 27.0469C24.7219 26.6719 25.4719 26.7656 25.9407 27.2344L28.0031 29.2969C28.2844 29.5781 28.3782 29.9531 28.3782 30.3281C28.3782 30.7031 28.1906 31.0781 28.0031 31.3594L26.2219 33.0469C25.3781 33.8906 24.2532 34.2656 23.2219 34.2656ZM13.0969 15.8906C13.0031 15.8906 12.8156 15.8906 12.7219 15.9844L10.9407 17.7656C10.0969 18.6094 9.81565 19.7344 10.0969 20.8594C10.5656 22.9219 11.6906 24.7969 13.1906 26.2031L17.0344 30.0469C18.5344 31.5469 20.4094 32.5781 22.3781 33.1406C23.5031 33.4219 24.7219 33.0469 25.4719 32.2969L27.2532 30.5156C27.3469 30.4219 27.3469 30.3281 27.3469 30.1406C27.3469 30.0469 27.2532 29.8594 27.2532 29.7656L25.1906 27.7031C25.0031 27.5156 24.8157 27.5156 24.6282 27.6094L22.5657 29.0156C21.6282 29.6719 20.4094 29.4844 19.5656 28.7344L14.5031 23.6719C13.7531 22.9219 13.5656 21.6094 14.2219 20.6719L15.6282 18.6094C15.7219 18.4219 15.7219 18.1406 15.5344 18.0469L13.4719 15.9844C13.2844 15.8906 13.1906 15.8906 13.0969 15.8906Z" fill="white"/>
<path d="M15.828 21.0469C15.7343 21.0469 15.5468 21.0469 15.453 20.9531L12.078 17.6719C11.8905 17.4844 11.8905 17.2031 12.078 17.0156C12.2655 16.8281 12.5468 16.8281 12.7343 17.0156L16.1093 20.2969C16.2968 20.4844 16.2968 20.7656 16.1093 20.9531C16.0155 21.0469 15.9218 21.0469 15.828 21.0469ZM27.078 32.3906C26.9843 32.3906 26.7968 32.3906 26.703 32.2969L23.4218 29.0156C23.2343 28.8281 23.2343 28.5469 23.4218 28.3594C23.6093 28.1719 23.8905 28.1719 24.078 28.3594L27.3593 31.6406C27.5468 31.8281 27.5468 32.1094 27.3593 32.2969C27.2655 32.2969 27.1718 32.3906 27.078 32.3906ZM28.0155 26.9531C28.3905 26.5781 28.953 26.5781 29.328 26.9531C29.703 27.3281 29.703 27.8906 29.328 28.2656L28.0155 26.9531ZM32.7968 29.2031H32.703C32.4218 29.1094 32.328 28.9219 32.328 28.6406C32.703 27.3281 32.328 25.9219 31.3905 24.9844C30.453 24.0469 29.0468 23.6719 27.7343 24.0469C27.453 24.1406 27.2655 23.9531 27.1718 23.6719C27.078 23.3906 27.2655 23.2031 27.5468 23.1094C29.1405 22.6406 30.9218 23.1094 32.0468 24.3281C33.2655 25.5469 33.7343 27.2344 33.2655 28.8281C33.1718 29.0156 32.9843 29.2031 32.7968 29.2031Z" fill="white"/>
<path d="M31.0156 28.6407H30.9218C30.6406 28.5469 30.5468 28.3594 30.5468 28.0782C30.7343 27.4219 30.5468 26.7657 30.0781 26.2969C29.6093 25.8282 28.9531 25.6407 28.2968 25.8282C28.0156 25.9219 27.8281 25.7344 27.7343 25.4532C27.6406 25.1719 27.8281 24.9844 28.1093 24.8907C29.0468 24.6094 30.0781 24.8907 30.8281 25.6407C31.5781 26.3907 31.8593 27.4219 31.5781 28.3594C31.3906 28.5469 31.2031 28.6407 31.0156 28.6407Z" fill="white"/>
<defs>
<linearGradient id="paint0_linear_908_204" x1="2.75563" y1="0.750774" x2="41.8497" y2="43.8269" gradientUnits="userSpaceOnUse">
<stop stop-color="#4E2B7D"/>
<stop offset="1" stop-color="#4FD3C4"/>
</linearGradient>
</defs>
</svg>
