<svg width="14" height="14" viewBox="0 0 14 14" fill="none" xmlns="http://www.w3.org/2000/svg">
<path d="M4.85483 11.3292C4.85483 11.3292 7.38954 13.5397 10.2181 13.9449C10.2181 13.9449 12.2018 14.387 13.561 12.766C13.561 12.766 14.4978 12.0845 13.6345 10.9977L11.5039 8.89776C11.5039 8.89776 10.9896 8.30831 10.163 8.82408L8.89567 10.0767C8.89567 10.0767 5.40585 8.27147 4.00992 5.1216L4.9834 4.14532C4.9834 4.14532 5.95688 3.27957 5.00177 2.30329L2.87114 0.203374C2.87114 0.203374 2.11807 -0.330815 1.365 0.332316C1.365 0.332316 -0.471745 1.87962 0.116014 4.47689C0.116014 4.47689 0.171117 7.20309 4.85483 11.3292Z" fill="white"/>
</svg>
