<svg width="186" height="181" viewBox="0 0 186 181" fill="none" xmlns="http://www.w3.org/2000/svg">
<path d="M106.641 162.367C106.365 162.367 106.098 162.275 105.88 162.107C105.663 161.938 105.508 161.702 105.44 161.436C100.799 143.278 88.6395 113.644 57.305 75.5975C46.2168 62.0806 34.2052 49.3418 21.3559 37.4718C21.2315 37.3647 21.1298 37.234 21.0566 37.0874C20.9834 36.9407 20.9403 36.781 20.9297 36.6176C20.9191 36.4541 20.9412 36.2902 20.9948 36.1354C21.0484 35.9806 21.1324 35.8379 21.2419 35.7157C21.3514 35.5935 21.4842 35.4943 21.6326 35.4237C21.781 35.3531 21.942 35.3127 22.1063 35.3046C22.2705 35.2966 22.4347 35.3212 22.5893 35.377C22.7439 35.4328 22.8859 35.5187 23.0068 35.6296C35.9449 47.5741 48.0364 60.397 59.1946 74.0061C76.6586 95.2017 99.281 127.49 107.841 160.829C107.881 160.986 107.891 161.15 107.868 161.311C107.845 161.472 107.79 161.627 107.707 161.767C107.624 161.907 107.514 162.029 107.383 162.126C107.252 162.223 107.104 162.294 106.946 162.334C106.846 162.358 106.743 162.369 106.641 162.367Z" fill="#B7996F"/>
<path d="M117.527 180.017H117.342C117.181 179.994 117.026 179.939 116.887 179.856C116.747 179.773 116.626 179.663 116.529 179.533C116.432 179.403 116.362 179.255 116.323 179.098C116.284 178.941 116.276 178.777 116.301 178.617C123.316 131.558 167.486 82.874 167.937 82.359C168.045 82.2323 168.177 82.1285 168.326 82.0538C168.475 81.9792 168.637 81.9352 168.804 81.9246C168.97 81.914 169.137 81.9369 169.294 81.9919C169.452 82.0469 169.596 82.133 169.719 82.245C169.842 82.3569 169.942 82.4925 170.011 82.6435C170.08 82.7945 170.118 82.9579 170.123 83.1238C170.127 83.2898 170.098 83.455 170.037 83.6095C169.976 83.764 169.884 83.9046 169.767 84.0229C169.329 84.5049 125.656 132.667 118.747 178.98C118.702 179.27 118.553 179.533 118.33 179.723C118.106 179.913 117.822 180.018 117.527 180.017Z" fill="#B7996F"/>
<path d="M30.0547 36.2438L26.0766 0C26.0766 0 10.5287 20.3042 30.0547 36.2438Z" fill="#D9D8C2"/>
<path d="M26.1098 0L30.088 36.2438C45.6955 16.5009 26.1098 0 26.1098 0Z" fill="#BCB39B"/>
<path d="M0.0994415 52.7314L36.0751 59.0109C21.8797 39.4 1.63765 51.7344 0.0994415 52.7314Z" fill="#BCB39B"/>
<path d="M36.0485 59.0108L0.0994494 52.7313L0 52.7974C0 52.7974 15.2694 73.3062 36.0485 59.0108Z" fill="#D9D8C2"/>
<path d="M12.3654 77.0898L48.8316 73.6298C29.1863 57.7827 12.3654 77.0898 12.3654 77.0898Z" fill="#BCB39B"/>
<path d="M48.8117 73.6101L12.3454 77.0701C12.3454 77.0701 32.5477 92.8446 48.8117 73.6101Z" fill="#D9D8C2"/>
<path d="M62.3373 87.8922L27.0313 97.559C27.0313 97.559 49.6338 109.623 62.3373 87.8922Z" fill="#D9D8C2"/>
<path d="M27.0313 97.5591L62.3373 87.9121C40.2719 75.657 27.0313 97.5591 27.0313 97.5591Z" fill="#BCB39B"/>
<path d="M74.5105 104.492L39.8012 116.087C39.8012 116.087 63.0468 126.896 74.5105 104.492Z" fill="#D9D8C2"/>
<path d="M39.8012 116.087L74.5105 104.492C51.8152 93.5049 39.8012 116.087 39.8012 116.087Z" fill="#BCB39B"/>
<path d="M84.8404 121.33L50.1312 132.925C50.1312 132.925 73.3767 143.701 84.8404 121.33Z" fill="#D9D8C2"/>
<path d="M50.1312 132.892L84.8404 121.33C62.1252 110.309 50.1312 132.892 50.1312 132.892Z" fill="#BCB39B"/>
<path d="M48.2746 13.7937C48.2746 13.7937 29.3652 31.0605 45.7817 50.1695L48.2746 13.7937Z" fill="#D9D8C2"/>
<path d="M48.2746 13.7937L45.7816 50.1695C64.6513 33.464 48.2746 13.7937 48.2746 13.7937Z" fill="#BCB39B"/>
<path d="M68.7621 30.4464C68.7621 30.4464 47.1741 44.2598 60.0832 65.8648L68.7621 30.4464Z" fill="#D9D8C2"/>
<path d="M68.7621 30.4464L60.0832 65.8648C81.5386 52.606 68.7621 30.4464 68.7621 30.4464Z" fill="#BCB39B"/>
<path d="M87.3996 48.6045L71.8318 81.6194C95.5017 72.844 87.3996 48.6045 87.3996 48.6045Z" fill="#BCB39B"/>
<path d="M71.8318 81.6062L87.3996 48.5913C87.3996 48.5913 63.4909 57.8685 71.8318 81.6062Z" fill="#D9D8C2"/>
<path d="M104.081 69.1663L83.2094 99.1174C108.013 94.3962 104.081 69.1663 104.081 69.1663Z" fill="#BCB39B"/>
<path d="M83.2093 99.1042L104.081 69.1663C104.081 69.1663 78.9593 74.3166 83.2093 99.1042Z" fill="#D9D8C2"/>
<path d="M95.4355 117.705L117.693 88.7507C117.693 88.7507 92.3524 92.7455 95.4355 117.705Z" fill="#D9D8C2"/>
<path d="M117.693 88.7507L95.4354 117.705C120.438 114.152 117.693 88.7507 117.693 88.7507Z" fill="#BCB39B"/>
<path d="M163.316 57.2808L163.183 83.5739C175.999 70.6651 163.316 57.2808 163.316 57.2808Z" fill="#BCB39B"/>
<path d="M163.316 57.2808C163.316 57.2808 150.493 70.566 163.183 83.5739L163.316 57.2808Z" fill="#D9D8C2"/>
<path d="M160.551 100.319L185.965 93.1944C185.965 93.1944 169.635 84.5841 160.551 100.319Z" fill="#D9D8C2"/>
<path d="M160.551 100.319C176.517 109.035 185.965 93.1945 185.965 93.1945L160.551 100.319Z" fill="#BCB39B"/>
<path d="M178.91 111.531L152.502 111.729C165.603 124.334 178.91 111.531 178.91 111.531Z" fill="#BCB39B"/>
<path d="M152.502 111.729L178.91 111.531C178.91 111.531 165.404 98.9325 152.502 111.729Z" fill="#D9D8C2"/>
<path d="M169.906 127.273L143.863 122.954C154.584 137.626 169.906 127.273 169.906 127.273Z" fill="#BCB39B"/>
<path d="M143.863 122.974L169.906 127.273C169.906 127.273 158.781 112.574 143.863 122.974Z" fill="#D9D8C2"/>
<path d="M162.122 141.542L136.364 135.784C146.25 151.043 162.122 141.542 162.122 141.542Z" fill="#BCB39B"/>
<path d="M136.364 135.784L162.122 141.542C162.122 141.542 151.839 126.223 136.364 135.784Z" fill="#D9D8C2"/>
<path d="M155.963 154.345L130.204 148.58C140.09 163.827 155.963 154.345 155.963 154.345Z" fill="#BCB39B"/>
<path d="M130.204 148.594L155.963 154.345C155.963 154.345 145.679 139.039 130.204 148.594Z" fill="#D9D8C2"/>
<path d="M148.438 68.7833L152.933 94.6934C163.289 79.7707 148.438 68.7833 148.438 68.7833Z" fill="#BCB39B"/>
<path d="M152.933 94.6934L148.438 68.7833C148.438 68.7833 138.154 84.1022 152.933 94.6934Z" fill="#D9D8C2"/>
<path d="M134.985 82.2401L143.843 107.008C151.494 90.5533 134.985 82.2401 134.985 82.2401Z" fill="#BCB39B"/>
<path d="M143.843 107.008L134.985 82.2401C134.985 82.2401 127.466 99.0777 143.843 107.008Z" fill="#D9D8C2"/>
<path d="M122.957 96.6413L136.583 119.164C140.799 101.521 122.957 96.6413 122.957 96.6413Z" fill="#BCB39B"/>
<path d="M136.583 119.164L122.958 96.6413C122.958 96.6413 118.953 114.628 136.583 119.164Z" fill="#D9D8C2"/>
<path d="M129.72 132.555L112.522 112.601C112.522 112.601 111.58 131.01 129.72 132.555Z" fill="#D9D8C2"/>
<path d="M112.522 112.607L129.72 132.555C130.927 114.463 112.522 112.607 112.522 112.607Z" fill="#BCB39B"/>
<path d="M122.334 146.804L104.214 127.656C104.214 127.656 104.134 146.098 122.334 146.804Z" fill="#D9D8C2"/>
<path d="M104.194 127.675L122.314 146.824C122.692 128.672 104.194 127.675 104.194 127.675Z" fill="#BCB39B"/>
</svg>
